M48
;GenerationSoftware,Autodesk,EAGLE,8.7.0*%
;CreationDate,2018-10-16T22:29:40Z*%
FMAT,2
ICI,OFF
METRIC,TZ,000.000
T15C0.350
T14C0.550
T13C0.813
T12C0.900
T11C0.914
T10C0.920
T9C1.000
T8C1.194
T7C1.321
T6C1.400
T5C1.500
T4C2.007
T3C2.311
T2C3.000
T1C4.000
%
G90
M71
T1
X6000Y64000
X95000Y4000
X7000Y4000
X97000Y45000
T2
X80750Y11040
X48620Y49478
X33380Y19760
X62950Y11040
T3
X95363Y51145
X101053Y51170
X95363Y64302
X101053Y64276
T4
X75610Y64613
X86450Y64613
X86450Y60600
X86450Y56587
X75610Y60600
X75610Y56587
T5
X32364Y54812
X32364Y15188
X49636Y15188
X49636Y54812
T6
X67650Y16080
X71850Y16080
X76050Y16080
X76050Y10580
X71850Y10580
X67650Y10580
T7
X81029Y36971
X14056Y64150
X67266Y24150
X77934Y24150
X83014Y24150
X62186Y24150
X68837Y48909
X81029Y48909
X68837Y36971
X66805Y42940
X19136Y64150
X29804Y64150
X34884Y64150
T8
X93822Y12565
X93857Y28189
X93793Y38729
X5196Y57563
X93857Y23109
X5258Y10832
X93822Y17645
X93793Y33649
X5258Y15912
X5232Y26326
X5232Y21246
X5210Y47155
X5196Y52483
X5210Y42075
X5210Y36744
X5210Y31664
T9
X45518Y64697
X42959Y64673
X40403Y64668
X37846Y64653
T10
X95744Y61381
X98360Y54091
X98360Y61381
X95744Y58638
X95744Y56529
X95744Y54091
X98360Y56529
X98360Y58663
T11
X19730Y3000
X22270Y3000
T12
X67081Y51000
X91890Y6110
X84582Y3708
X61000Y55000
X57000Y59000
X85000Y38000
X86000Y34000
X85000Y10000
X90000Y6000
X90000Y10000
X50000Y22000
X57000Y57000
X87000Y10000
X88000Y45000
X86000Y22000
X37000Y55000
X92872Y52053
X39000Y48000
X55000Y18081
X92000Y48000
X88000Y50000
T13
X54495Y49265
X26380Y3200
X34000Y3200
X28758Y48463
X28758Y40843
X12019Y30251
X12019Y37871
X28834Y38354
X28834Y30734
X12070Y19939
X15878Y42426
X12070Y27559
X28961Y27610
X28961Y19990
X12273Y9500
X12273Y17120
X28928Y17085
X28928Y9465
X61560Y62170
X64100Y62170
X72000Y29781
X73905Y31051
X72000Y32321
X63607Y3148
X66147Y3148
X68687Y3148
X71227Y3148
X73767Y3148
X76307Y3148
X78847Y3148
X81387Y3148
X61710Y38340
X61710Y48500
X64100Y64710
X38290Y7140
X38290Y9680
X15878Y47506
X15878Y44966
X23498Y44966
X23498Y47506
X23498Y42426
X15898Y37029
X15898Y34489
X23518Y34489
X23518Y37029
X15898Y31949
X23518Y31949
X15872Y26427
X15872Y23887
X23492Y23887
X23492Y26427
X15872Y21347
X23492Y21347
X15863Y15775
X15863Y13235
X23483Y13235
X23483Y15775
X15863Y10695
X23483Y10695
X12070Y40818
X12070Y48438
X69005Y60620
X69005Y53000
X77417Y31813
X85037Y31813
X53380Y15000
X61000Y15000
X53600Y65620
X53600Y58000
X54495Y41645
T14
X35000Y5000
X44000Y14000
X35000Y40000
X39497Y13894
X51126Y3126
X46000Y6000
T15
X19645Y53000
X59000Y49000
X49000Y45000
X48000Y45000
X47000Y44000
X48000Y44000
X49000Y44000
X49000Y43000
X48000Y43000
X47000Y43000
X46000Y43000
X46000Y42000
X47000Y42000
X48000Y42000
X49000Y42000
X49000Y41000
X48000Y41000
X46000Y41000
X47000Y41000
X46000Y40000
X47000Y40000
X48000Y40000
X49000Y40000
X49000Y39000
X46000Y28000
X46000Y30000
X46000Y44000
X46000Y45000
X47000Y30000
X48000Y30000
X49000Y30000
X49000Y31000
X48000Y31000
X47000Y31000
X46000Y46000
X49000Y27000
X46000Y31000
X46000Y32000
X47000Y32000
X48000Y32000
X49000Y32000
X49000Y33000
X48000Y33000
X47000Y33000
X46000Y33000
X46000Y34000
X47000Y34000
X48000Y34000
X48000Y27000
X47000Y27000
X47000Y45000
X49000Y34000
X49000Y35000
X48000Y35000
X47000Y35000
X46000Y35000
X46000Y36000
X47000Y36000
X48000Y36000
X49000Y36000
X46000Y37000
X47000Y37000
X48000Y37000
X49000Y37000
X49000Y38000
X46000Y38000
X47000Y38000
X48000Y38000
X48000Y39000
X46000Y39000
X47000Y39000
X47000Y28000
X46000Y27000
X49000Y46000
X48000Y46000
X47000Y46000
X49000Y28000
X49000Y29000
X48000Y28000
X48000Y29000
X47000Y29000
X46000Y29000
M30