G04 EAGLE Gerber X2 export*
%TF.Part,Single*%
%TF.FileFunction,Profile,NP*%
%TF.FilePolarity,Positive*%
%TF.GenerationSoftware,Autodesk,EAGLE,8.7.0*%
%TF.CreationDate,2018-10-16T22:29:40Z*%
G75*
%MOMM*%
%FSLAX34Y34*%
%LPD*%
%AMOC8*
5,1,8,0,0,1.08239X$1,22.5*%
G01*
%ADD10C,0.254000*%


D10*
X0Y10000D02*
X10000Y0D01*
X980000Y0D01*
X990000Y10000D01*
X990000Y420000D01*
X1050000Y510000D01*
X1050000Y680000D01*
X1040000Y690000D01*
X10000Y690000D01*
X0Y680000D01*
X0Y10000D01*
X190000Y90000D02*
X190038Y89128D01*
X190152Y88264D01*
X190341Y87412D01*
X190603Y86580D01*
X190937Y85774D01*
X191340Y85000D01*
X191808Y84264D01*
X192340Y83572D01*
X192929Y82929D01*
X193572Y82340D01*
X194264Y81808D01*
X195000Y81340D01*
X195774Y80937D01*
X196580Y80603D01*
X197412Y80341D01*
X198264Y80152D01*
X199128Y80038D01*
X200000Y80000D01*
X200872Y80038D01*
X201736Y80152D01*
X202588Y80341D01*
X203420Y80603D01*
X204226Y80937D01*
X205000Y81340D01*
X205736Y81808D01*
X206428Y82340D01*
X207071Y82929D01*
X207660Y83572D01*
X208192Y84264D01*
X208660Y85000D01*
X209063Y85774D01*
X209397Y86580D01*
X209659Y87412D01*
X209848Y88264D01*
X209962Y89128D01*
X210000Y90000D01*
X210000Y170000D01*
X209962Y170872D01*
X209848Y171736D01*
X209659Y172588D01*
X209397Y173420D01*
X209063Y174226D01*
X208660Y175000D01*
X208192Y175736D01*
X207660Y176428D01*
X207071Y177071D01*
X206428Y177660D01*
X205736Y178192D01*
X205000Y178660D01*
X204226Y179063D01*
X203420Y179397D01*
X202588Y179659D01*
X201736Y179848D01*
X200872Y179962D01*
X200000Y180000D01*
X199128Y179962D01*
X198264Y179848D01*
X197412Y179659D01*
X196580Y179397D01*
X195774Y179063D01*
X195000Y178660D01*
X194264Y178192D01*
X193572Y177660D01*
X192929Y177071D01*
X192340Y176428D01*
X191808Y175736D01*
X191340Y175000D01*
X190937Y174226D01*
X190603Y173420D01*
X190341Y172588D01*
X190152Y171736D01*
X190038Y170872D01*
X190000Y170000D01*
X190000Y90000D01*
X190000Y200000D02*
X190038Y199128D01*
X190152Y198264D01*
X190341Y197412D01*
X190603Y196580D01*
X190937Y195774D01*
X191340Y195000D01*
X191808Y194264D01*
X192340Y193572D01*
X192929Y192929D01*
X193572Y192340D01*
X194264Y191808D01*
X195000Y191340D01*
X195774Y190937D01*
X196580Y190603D01*
X197412Y190341D01*
X198264Y190152D01*
X199128Y190038D01*
X200000Y190000D01*
X200872Y190038D01*
X201736Y190152D01*
X202588Y190341D01*
X203420Y190603D01*
X204226Y190937D01*
X205000Y191340D01*
X205736Y191808D01*
X206428Y192340D01*
X207071Y192929D01*
X207660Y193572D01*
X208192Y194264D01*
X208660Y195000D01*
X209063Y195774D01*
X209397Y196580D01*
X209659Y197412D01*
X209848Y198264D01*
X209962Y199128D01*
X210000Y200000D01*
X210000Y280000D01*
X209962Y280872D01*
X209848Y281736D01*
X209659Y282588D01*
X209397Y283420D01*
X209063Y284226D01*
X208660Y285000D01*
X208192Y285736D01*
X207660Y286428D01*
X207071Y287071D01*
X206428Y287660D01*
X205736Y288192D01*
X205000Y288660D01*
X204226Y289063D01*
X203420Y289397D01*
X202588Y289659D01*
X201736Y289848D01*
X200872Y289962D01*
X200000Y290000D01*
X199128Y289962D01*
X198264Y289848D01*
X197412Y289659D01*
X196580Y289397D01*
X195774Y289063D01*
X195000Y288660D01*
X194264Y288192D01*
X193572Y287660D01*
X192929Y287071D01*
X192340Y286428D01*
X191808Y285736D01*
X191340Y285000D01*
X190937Y284226D01*
X190603Y283420D01*
X190341Y282588D01*
X190152Y281736D01*
X190038Y280872D01*
X190000Y280000D01*
X190000Y200000D01*
X190000Y310000D02*
X190038Y309128D01*
X190152Y308264D01*
X190341Y307412D01*
X190603Y306580D01*
X190937Y305774D01*
X191340Y305000D01*
X191808Y304264D01*
X192340Y303572D01*
X192929Y302929D01*
X193572Y302340D01*
X194264Y301808D01*
X195000Y301340D01*
X195774Y300937D01*
X196580Y300603D01*
X197412Y300341D01*
X198264Y300152D01*
X199128Y300038D01*
X200000Y300000D01*
X200872Y300038D01*
X201736Y300152D01*
X202588Y300341D01*
X203420Y300603D01*
X204226Y300937D01*
X205000Y301340D01*
X205736Y301808D01*
X206428Y302340D01*
X207071Y302929D01*
X207660Y303572D01*
X208192Y304264D01*
X208660Y305000D01*
X209063Y305774D01*
X209397Y306580D01*
X209659Y307412D01*
X209848Y308264D01*
X209962Y309128D01*
X210000Y310000D01*
X210000Y380000D01*
X209962Y380872D01*
X209848Y381736D01*
X209659Y382588D01*
X209397Y383420D01*
X209063Y384226D01*
X208660Y385000D01*
X208192Y385736D01*
X207660Y386428D01*
X207071Y387071D01*
X206428Y387660D01*
X205736Y388192D01*
X205000Y388660D01*
X204226Y389063D01*
X203420Y389397D01*
X202588Y389659D01*
X201736Y389848D01*
X200872Y389962D01*
X200000Y390000D01*
X199128Y389962D01*
X198264Y389848D01*
X197412Y389659D01*
X196580Y389397D01*
X195774Y389063D01*
X195000Y388660D01*
X194264Y388192D01*
X193572Y387660D01*
X192929Y387071D01*
X192340Y386428D01*
X191808Y385736D01*
X191340Y385000D01*
X190937Y384226D01*
X190603Y383420D01*
X190341Y382588D01*
X190152Y381736D01*
X190038Y380872D01*
X190000Y380000D01*
X190000Y310000D01*
X190000Y410000D02*
X190038Y409128D01*
X190152Y408264D01*
X190341Y407412D01*
X190603Y406580D01*
X190937Y405774D01*
X191340Y405000D01*
X191808Y404264D01*
X192340Y403572D01*
X192929Y402929D01*
X193572Y402340D01*
X194264Y401808D01*
X195000Y401340D01*
X195774Y400937D01*
X196580Y400603D01*
X197412Y400341D01*
X198264Y400152D01*
X199128Y400038D01*
X200000Y400000D01*
X200872Y400038D01*
X201736Y400152D01*
X202588Y400341D01*
X203420Y400603D01*
X204226Y400937D01*
X205000Y401340D01*
X205736Y401808D01*
X206428Y402340D01*
X207071Y402929D01*
X207660Y403572D01*
X208192Y404264D01*
X208660Y405000D01*
X209063Y405774D01*
X209397Y406580D01*
X209659Y407412D01*
X209848Y408264D01*
X209962Y409128D01*
X210000Y410000D01*
X210000Y490000D01*
X209962Y490872D01*
X209848Y491736D01*
X209659Y492588D01*
X209397Y493420D01*
X209063Y494226D01*
X208660Y495000D01*
X208192Y495736D01*
X207660Y496428D01*
X207071Y497071D01*
X206428Y497660D01*
X205736Y498192D01*
X205000Y498660D01*
X204226Y499063D01*
X203420Y499397D01*
X202588Y499659D01*
X201736Y499848D01*
X200872Y499962D01*
X200000Y500000D01*
X199128Y499962D01*
X198264Y499848D01*
X197412Y499659D01*
X196580Y499397D01*
X195774Y499063D01*
X195000Y498660D01*
X194264Y498192D01*
X193572Y497660D01*
X192929Y497071D01*
X192340Y496428D01*
X191808Y495736D01*
X191340Y495000D01*
X190937Y494226D01*
X190603Y493420D01*
X190341Y492588D01*
X190152Y491736D01*
X190038Y490872D01*
X190000Y490000D01*
X190000Y410000D01*
X80000Y639396D02*
X79927Y638189D01*
X79781Y636989D01*
X79563Y635800D01*
X79274Y634627D01*
X78915Y633473D01*
X78486Y632343D01*
X77990Y631241D01*
X77428Y630170D01*
X76803Y629136D01*
X76116Y628141D01*
X75371Y627190D01*
X74569Y626285D01*
X73715Y625431D01*
X72810Y624629D01*
X71859Y623884D01*
X70864Y623197D01*
X69830Y622572D01*
X68759Y622010D01*
X67657Y621514D01*
X66527Y621085D01*
X65373Y620726D01*
X64200Y620437D01*
X63011Y620219D01*
X61811Y620073D01*
X60604Y620000D01*
X59396Y620000D01*
X58189Y620073D01*
X56989Y620219D01*
X55800Y620437D01*
X54627Y620726D01*
X53473Y621085D01*
X52343Y621514D01*
X51241Y622010D01*
X50170Y622572D01*
X49136Y623197D01*
X48141Y623884D01*
X47190Y624629D01*
X46285Y625431D01*
X45431Y626285D01*
X44629Y627190D01*
X43884Y628141D01*
X43197Y629136D01*
X42572Y630170D01*
X42010Y631241D01*
X41514Y632343D01*
X41085Y633473D01*
X40726Y634627D01*
X40437Y635800D01*
X40219Y636989D01*
X40073Y638189D01*
X40000Y639396D01*
X40000Y640604D01*
X40073Y641811D01*
X40219Y643011D01*
X40437Y644200D01*
X40726Y645373D01*
X41085Y646527D01*
X41514Y647657D01*
X42010Y648759D01*
X42572Y649830D01*
X43197Y650864D01*
X43884Y651859D01*
X44629Y652810D01*
X45431Y653715D01*
X46285Y654569D01*
X47190Y655371D01*
X48141Y656116D01*
X49136Y656803D01*
X50170Y657428D01*
X51241Y657990D01*
X52343Y658486D01*
X53473Y658915D01*
X54627Y659274D01*
X55800Y659563D01*
X56989Y659781D01*
X58189Y659927D01*
X59396Y660000D01*
X60604Y660000D01*
X61811Y659927D01*
X63011Y659781D01*
X64200Y659563D01*
X65373Y659274D01*
X66527Y658915D01*
X67657Y658486D01*
X68759Y657990D01*
X69830Y657428D01*
X70864Y656803D01*
X71859Y656116D01*
X72810Y655371D01*
X73715Y654569D01*
X74569Y653715D01*
X75371Y652810D01*
X76116Y651859D01*
X76803Y650864D01*
X77428Y649830D01*
X77990Y648759D01*
X78486Y647657D01*
X78915Y646527D01*
X79274Y645373D01*
X79563Y644200D01*
X79781Y643011D01*
X79927Y641811D01*
X80000Y640604D01*
X80000Y639396D01*
X970000Y39396D02*
X969927Y38189D01*
X969781Y36989D01*
X969563Y35800D01*
X969274Y34627D01*
X968915Y33473D01*
X968486Y32343D01*
X967990Y31241D01*
X967428Y30170D01*
X966803Y29136D01*
X966116Y28141D01*
X965371Y27190D01*
X964569Y26285D01*
X963715Y25431D01*
X962810Y24629D01*
X961859Y23884D01*
X960864Y23197D01*
X959830Y22572D01*
X958759Y22010D01*
X957657Y21514D01*
X956527Y21085D01*
X955373Y20726D01*
X954200Y20437D01*
X953011Y20219D01*
X951811Y20073D01*
X950604Y20000D01*
X949396Y20000D01*
X948189Y20073D01*
X946989Y20219D01*
X945800Y20437D01*
X944627Y20726D01*
X943473Y21085D01*
X942343Y21514D01*
X941241Y22010D01*
X940170Y22572D01*
X939136Y23197D01*
X938141Y23884D01*
X937190Y24629D01*
X936285Y25431D01*
X935431Y26285D01*
X934629Y27190D01*
X933884Y28141D01*
X933197Y29136D01*
X932572Y30170D01*
X932010Y31241D01*
X931514Y32343D01*
X931085Y33473D01*
X930726Y34627D01*
X930437Y35800D01*
X930219Y36989D01*
X930073Y38189D01*
X930000Y39396D01*
X930000Y40604D01*
X930073Y41811D01*
X930219Y43011D01*
X930437Y44200D01*
X930726Y45373D01*
X931085Y46527D01*
X931514Y47657D01*
X932010Y48759D01*
X932572Y49830D01*
X933197Y50864D01*
X933884Y51859D01*
X934629Y52810D01*
X935431Y53715D01*
X936285Y54569D01*
X937190Y55371D01*
X938141Y56116D01*
X939136Y56803D01*
X940170Y57428D01*
X941241Y57990D01*
X942343Y58486D01*
X943473Y58915D01*
X944627Y59274D01*
X945800Y59563D01*
X946989Y59781D01*
X948189Y59927D01*
X949396Y60000D01*
X950604Y60000D01*
X951811Y59927D01*
X953011Y59781D01*
X954200Y59563D01*
X955373Y59274D01*
X956527Y58915D01*
X957657Y58486D01*
X958759Y57990D01*
X959830Y57428D01*
X960864Y56803D01*
X961859Y56116D01*
X962810Y55371D01*
X963715Y54569D01*
X964569Y53715D01*
X965371Y52810D01*
X966116Y51859D01*
X966803Y50864D01*
X967428Y49830D01*
X967990Y48759D01*
X968486Y47657D01*
X968915Y46527D01*
X969274Y45373D01*
X969563Y44200D01*
X969781Y43011D01*
X969927Y41811D01*
X970000Y40604D01*
X970000Y39396D01*
X90000Y39396D02*
X89927Y38189D01*
X89781Y36989D01*
X89563Y35800D01*
X89274Y34627D01*
X88915Y33473D01*
X88486Y32343D01*
X87990Y31241D01*
X87428Y30170D01*
X86803Y29136D01*
X86116Y28141D01*
X85371Y27190D01*
X84569Y26285D01*
X83715Y25431D01*
X82810Y24629D01*
X81859Y23884D01*
X80864Y23197D01*
X79830Y22572D01*
X78759Y22010D01*
X77657Y21514D01*
X76527Y21085D01*
X75373Y20726D01*
X74200Y20437D01*
X73011Y20219D01*
X71811Y20073D01*
X70604Y20000D01*
X69396Y20000D01*
X68189Y20073D01*
X66989Y20219D01*
X65800Y20437D01*
X64627Y20726D01*
X63473Y21085D01*
X62343Y21514D01*
X61241Y22010D01*
X60170Y22572D01*
X59136Y23197D01*
X58141Y23884D01*
X57190Y24629D01*
X56285Y25431D01*
X55431Y26285D01*
X54629Y27190D01*
X53884Y28141D01*
X53197Y29136D01*
X52572Y30170D01*
X52010Y31241D01*
X51514Y32343D01*
X51085Y33473D01*
X50726Y34627D01*
X50437Y35800D01*
X50219Y36989D01*
X50073Y38189D01*
X50000Y39396D01*
X50000Y40604D01*
X50073Y41811D01*
X50219Y43011D01*
X50437Y44200D01*
X50726Y45373D01*
X51085Y46527D01*
X51514Y47657D01*
X52010Y48759D01*
X52572Y49830D01*
X53197Y50864D01*
X53884Y51859D01*
X54629Y52810D01*
X55431Y53715D01*
X56285Y54569D01*
X57190Y55371D01*
X58141Y56116D01*
X59136Y56803D01*
X60170Y57428D01*
X61241Y57990D01*
X62343Y58486D01*
X63473Y58915D01*
X64627Y59274D01*
X65800Y59563D01*
X66989Y59781D01*
X68189Y59927D01*
X69396Y60000D01*
X70604Y60000D01*
X71811Y59927D01*
X73011Y59781D01*
X74200Y59563D01*
X75373Y59274D01*
X76527Y58915D01*
X77657Y58486D01*
X78759Y57990D01*
X79830Y57428D01*
X80864Y56803D01*
X81859Y56116D01*
X82810Y55371D01*
X83715Y54569D01*
X84569Y53715D01*
X85371Y52810D01*
X86116Y51859D01*
X86803Y50864D01*
X87428Y49830D01*
X87990Y48759D01*
X88486Y47657D01*
X88915Y46527D01*
X89274Y45373D01*
X89563Y44200D01*
X89781Y43011D01*
X89927Y41811D01*
X90000Y40604D01*
X90000Y39396D01*
X990000Y449396D02*
X989927Y448189D01*
X989781Y446989D01*
X989563Y445800D01*
X989274Y444627D01*
X988915Y443473D01*
X988486Y442343D01*
X987990Y441241D01*
X987428Y440170D01*
X986803Y439136D01*
X986116Y438141D01*
X985371Y437190D01*
X984569Y436285D01*
X983715Y435431D01*
X982810Y434629D01*
X981859Y433884D01*
X980864Y433197D01*
X979830Y432572D01*
X978759Y432010D01*
X977657Y431514D01*
X976527Y431085D01*
X975373Y430726D01*
X974200Y430437D01*
X973011Y430219D01*
X971811Y430073D01*
X970604Y430000D01*
X969396Y430000D01*
X968189Y430073D01*
X966989Y430219D01*
X965800Y430437D01*
X964627Y430726D01*
X963473Y431085D01*
X962343Y431514D01*
X961241Y432010D01*
X960170Y432572D01*
X959136Y433197D01*
X958141Y433884D01*
X957190Y434629D01*
X956285Y435431D01*
X955431Y436285D01*
X954629Y437190D01*
X953884Y438141D01*
X953197Y439136D01*
X952572Y440170D01*
X952010Y441241D01*
X951514Y442343D01*
X951085Y443473D01*
X950726Y444627D01*
X950437Y445800D01*
X950219Y446989D01*
X950073Y448189D01*
X950000Y449396D01*
X950000Y450604D01*
X950073Y451811D01*
X950219Y453011D01*
X950437Y454200D01*
X950726Y455373D01*
X951085Y456527D01*
X951514Y457657D01*
X952010Y458759D01*
X952572Y459830D01*
X953197Y460864D01*
X953884Y461859D01*
X954629Y462810D01*
X955431Y463715D01*
X956285Y464569D01*
X957190Y465371D01*
X958141Y466116D01*
X959136Y466803D01*
X960170Y467428D01*
X961241Y467990D01*
X962343Y468486D01*
X963473Y468915D01*
X964627Y469274D01*
X965800Y469563D01*
X966989Y469781D01*
X968189Y469927D01*
X969396Y470000D01*
X970604Y470000D01*
X971811Y469927D01*
X973011Y469781D01*
X974200Y469563D01*
X975373Y469274D01*
X976527Y468915D01*
X977657Y468486D01*
X978759Y467990D01*
X979830Y467428D01*
X980864Y466803D01*
X981859Y466116D01*
X982810Y465371D01*
X983715Y464569D01*
X984569Y463715D01*
X985371Y462810D01*
X986116Y461859D01*
X986803Y460864D01*
X987428Y459830D01*
X987990Y458759D01*
X988486Y457657D01*
X988915Y456527D01*
X989274Y455373D01*
X989563Y454200D01*
X989781Y453011D01*
X989927Y451811D01*
X990000Y450604D01*
X990000Y449396D01*
X80000Y639396D02*
X79927Y638189D01*
X79781Y636989D01*
X79563Y635800D01*
X79274Y634627D01*
X78915Y633473D01*
X78486Y632343D01*
X77990Y631241D01*
X77428Y630170D01*
X76803Y629136D01*
X76116Y628141D01*
X75371Y627190D01*
X74569Y626285D01*
X73715Y625431D01*
X72810Y624629D01*
X71859Y623884D01*
X70864Y623197D01*
X69830Y622572D01*
X68759Y622010D01*
X67657Y621514D01*
X66527Y621085D01*
X65373Y620726D01*
X64200Y620437D01*
X63011Y620219D01*
X61811Y620073D01*
X60604Y620000D01*
X59396Y620000D01*
X58189Y620073D01*
X56989Y620219D01*
X55800Y620437D01*
X54627Y620726D01*
X53473Y621085D01*
X52343Y621514D01*
X51241Y622010D01*
X50170Y622572D01*
X49136Y623197D01*
X48141Y623884D01*
X47190Y624629D01*
X46285Y625431D01*
X45431Y626285D01*
X44629Y627190D01*
X43884Y628141D01*
X43197Y629136D01*
X42572Y630170D01*
X42010Y631241D01*
X41514Y632343D01*
X41085Y633473D01*
X40726Y634627D01*
X40437Y635800D01*
X40219Y636989D01*
X40073Y638189D01*
X40000Y639396D01*
X40000Y640604D01*
X40073Y641811D01*
X40219Y643011D01*
X40437Y644200D01*
X40726Y645373D01*
X41085Y646527D01*
X41514Y647657D01*
X42010Y648759D01*
X42572Y649830D01*
X43197Y650864D01*
X43884Y651859D01*
X44629Y652810D01*
X45431Y653715D01*
X46285Y654569D01*
X47190Y655371D01*
X48141Y656116D01*
X49136Y656803D01*
X50170Y657428D01*
X51241Y657990D01*
X52343Y658486D01*
X53473Y658915D01*
X54627Y659274D01*
X55800Y659563D01*
X56989Y659781D01*
X58189Y659927D01*
X59396Y660000D01*
X60604Y660000D01*
X61811Y659927D01*
X63011Y659781D01*
X64200Y659563D01*
X65373Y659274D01*
X66527Y658915D01*
X67657Y658486D01*
X68759Y657990D01*
X69830Y657428D01*
X70864Y656803D01*
X71859Y656116D01*
X72810Y655371D01*
X73715Y654569D01*
X74569Y653715D01*
X75371Y652810D01*
X76116Y651859D01*
X76803Y650864D01*
X77428Y649830D01*
X77990Y648759D01*
X78486Y647657D01*
X78915Y646527D01*
X79274Y645373D01*
X79563Y644200D01*
X79781Y643011D01*
X79927Y641811D01*
X80000Y640604D01*
X80000Y639396D01*
X970000Y39396D02*
X969927Y38189D01*
X969781Y36989D01*
X969563Y35800D01*
X969274Y34627D01*
X968915Y33473D01*
X968486Y32343D01*
X967990Y31241D01*
X967428Y30170D01*
X966803Y29136D01*
X966116Y28141D01*
X965371Y27190D01*
X964569Y26285D01*
X963715Y25431D01*
X962810Y24629D01*
X961859Y23884D01*
X960864Y23197D01*
X959830Y22572D01*
X958759Y22010D01*
X957657Y21514D01*
X956527Y21085D01*
X955373Y20726D01*
X954200Y20437D01*
X953011Y20219D01*
X951811Y20073D01*
X950604Y20000D01*
X949396Y20000D01*
X948189Y20073D01*
X946989Y20219D01*
X945800Y20437D01*
X944627Y20726D01*
X943473Y21085D01*
X942343Y21514D01*
X941241Y22010D01*
X940170Y22572D01*
X939136Y23197D01*
X938141Y23884D01*
X937190Y24629D01*
X936285Y25431D01*
X935431Y26285D01*
X934629Y27190D01*
X933884Y28141D01*
X933197Y29136D01*
X932572Y30170D01*
X932010Y31241D01*
X931514Y32343D01*
X931085Y33473D01*
X930726Y34627D01*
X930437Y35800D01*
X930219Y36989D01*
X930073Y38189D01*
X930000Y39396D01*
X930000Y40604D01*
X930073Y41811D01*
X930219Y43011D01*
X930437Y44200D01*
X930726Y45373D01*
X931085Y46527D01*
X931514Y47657D01*
X932010Y48759D01*
X932572Y49830D01*
X933197Y50864D01*
X933884Y51859D01*
X934629Y52810D01*
X935431Y53715D01*
X936285Y54569D01*
X937190Y55371D01*
X938141Y56116D01*
X939136Y56803D01*
X940170Y57428D01*
X941241Y57990D01*
X942343Y58486D01*
X943473Y58915D01*
X944627Y59274D01*
X945800Y59563D01*
X946989Y59781D01*
X948189Y59927D01*
X949396Y60000D01*
X950604Y60000D01*
X951811Y59927D01*
X953011Y59781D01*
X954200Y59563D01*
X955373Y59274D01*
X956527Y58915D01*
X957657Y58486D01*
X958759Y57990D01*
X959830Y57428D01*
X960864Y56803D01*
X961859Y56116D01*
X962810Y55371D01*
X963715Y54569D01*
X964569Y53715D01*
X965371Y52810D01*
X966116Y51859D01*
X966803Y50864D01*
X967428Y49830D01*
X967990Y48759D01*
X968486Y47657D01*
X968915Y46527D01*
X969274Y45373D01*
X969563Y44200D01*
X969781Y43011D01*
X969927Y41811D01*
X970000Y40604D01*
X970000Y39396D01*
X90000Y39396D02*
X89927Y38189D01*
X89781Y36989D01*
X89563Y35800D01*
X89274Y34627D01*
X88915Y33473D01*
X88486Y32343D01*
X87990Y31241D01*
X87428Y30170D01*
X86803Y29136D01*
X86116Y28141D01*
X85371Y27190D01*
X84569Y26285D01*
X83715Y25431D01*
X82810Y24629D01*
X81859Y23884D01*
X80864Y23197D01*
X79830Y22572D01*
X78759Y22010D01*
X77657Y21514D01*
X76527Y21085D01*
X75373Y20726D01*
X74200Y20437D01*
X73011Y20219D01*
X71811Y20073D01*
X70604Y20000D01*
X69396Y20000D01*
X68189Y20073D01*
X66989Y20219D01*
X65800Y20437D01*
X64627Y20726D01*
X63473Y21085D01*
X62343Y21514D01*
X61241Y22010D01*
X60170Y22572D01*
X59136Y23197D01*
X58141Y23884D01*
X57190Y24629D01*
X56285Y25431D01*
X55431Y26285D01*
X54629Y27190D01*
X53884Y28141D01*
X53197Y29136D01*
X52572Y30170D01*
X52010Y31241D01*
X51514Y32343D01*
X51085Y33473D01*
X50726Y34627D01*
X50437Y35800D01*
X50219Y36989D01*
X50073Y38189D01*
X50000Y39396D01*
X50000Y40604D01*
X50073Y41811D01*
X50219Y43011D01*
X50437Y44200D01*
X50726Y45373D01*
X51085Y46527D01*
X51514Y47657D01*
X52010Y48759D01*
X52572Y49830D01*
X53197Y50864D01*
X53884Y51859D01*
X54629Y52810D01*
X55431Y53715D01*
X56285Y54569D01*
X57190Y55371D01*
X58141Y56116D01*
X59136Y56803D01*
X60170Y57428D01*
X61241Y57990D01*
X62343Y58486D01*
X63473Y58915D01*
X64627Y59274D01*
X65800Y59563D01*
X66989Y59781D01*
X68189Y59927D01*
X69396Y60000D01*
X70604Y60000D01*
X71811Y59927D01*
X73011Y59781D01*
X74200Y59563D01*
X75373Y59274D01*
X76527Y58915D01*
X77657Y58486D01*
X78759Y57990D01*
X79830Y57428D01*
X80864Y56803D01*
X81859Y56116D01*
X82810Y55371D01*
X83715Y54569D01*
X84569Y53715D01*
X85371Y52810D01*
X86116Y51859D01*
X86803Y50864D01*
X87428Y49830D01*
X87990Y48759D01*
X88486Y47657D01*
X88915Y46527D01*
X89274Y45373D01*
X89563Y44200D01*
X89781Y43011D01*
X89927Y41811D01*
X90000Y40604D01*
X90000Y39396D01*
X990000Y449396D02*
X989927Y448189D01*
X989781Y446989D01*
X989563Y445800D01*
X989274Y444627D01*
X988915Y443473D01*
X988486Y442343D01*
X987990Y441241D01*
X987428Y440170D01*
X986803Y439136D01*
X986116Y438141D01*
X985371Y437190D01*
X984569Y436285D01*
X983715Y435431D01*
X982810Y434629D01*
X981859Y433884D01*
X980864Y433197D01*
X979830Y432572D01*
X978759Y432010D01*
X977657Y431514D01*
X976527Y431085D01*
X975373Y430726D01*
X974200Y430437D01*
X973011Y430219D01*
X971811Y430073D01*
X970604Y430000D01*
X969396Y430000D01*
X968189Y430073D01*
X966989Y430219D01*
X965800Y430437D01*
X964627Y430726D01*
X963473Y431085D01*
X962343Y431514D01*
X961241Y432010D01*
X960170Y432572D01*
X959136Y433197D01*
X958141Y433884D01*
X957190Y434629D01*
X956285Y435431D01*
X955431Y436285D01*
X954629Y437190D01*
X953884Y438141D01*
X953197Y439136D01*
X952572Y440170D01*
X952010Y441241D01*
X951514Y442343D01*
X951085Y443473D01*
X950726Y444627D01*
X950437Y445800D01*
X950219Y446989D01*
X950073Y448189D01*
X950000Y449396D01*
X950000Y450604D01*
X950073Y451811D01*
X950219Y453011D01*
X950437Y454200D01*
X950726Y455373D01*
X951085Y456527D01*
X951514Y457657D01*
X952010Y458759D01*
X952572Y459830D01*
X953197Y460864D01*
X953884Y461859D01*
X954629Y462810D01*
X955431Y463715D01*
X956285Y464569D01*
X957190Y465371D01*
X958141Y466116D01*
X959136Y466803D01*
X960170Y467428D01*
X961241Y467990D01*
X962343Y468486D01*
X963473Y468915D01*
X964627Y469274D01*
X965800Y469563D01*
X966989Y469781D01*
X968189Y469927D01*
X969396Y470000D01*
X970604Y470000D01*
X971811Y469927D01*
X973011Y469781D01*
X974200Y469563D01*
X975373Y469274D01*
X976527Y468915D01*
X977657Y468486D01*
X978759Y467990D01*
X979830Y467428D01*
X980864Y466803D01*
X981859Y466116D01*
X982810Y465371D01*
X983715Y464569D01*
X984569Y463715D01*
X985371Y462810D01*
X986116Y461859D01*
X986803Y460864D01*
X987428Y459830D01*
X987990Y458759D01*
X988486Y457657D01*
X988915Y456527D01*
X989274Y455373D01*
X989563Y454200D01*
X989781Y453011D01*
X989927Y451811D01*
X990000Y450604D01*
X990000Y449396D01*
X614500Y110936D02*
X614576Y112004D01*
X614729Y113065D01*
X614957Y114112D01*
X615259Y115140D01*
X615633Y116144D01*
X616078Y117119D01*
X616592Y118059D01*
X617171Y118960D01*
X617813Y119818D01*
X618515Y120628D01*
X619272Y121385D01*
X620082Y122087D01*
X620940Y122729D01*
X621841Y123308D01*
X622781Y123822D01*
X623756Y124267D01*
X624760Y124641D01*
X625788Y124943D01*
X626835Y125171D01*
X627896Y125324D01*
X628964Y125400D01*
X630036Y125400D01*
X631104Y125324D01*
X632165Y125171D01*
X633212Y124943D01*
X634240Y124641D01*
X635244Y124267D01*
X636219Y123822D01*
X637159Y123308D01*
X638060Y122729D01*
X638918Y122087D01*
X639728Y121385D01*
X640485Y120628D01*
X641187Y119818D01*
X641829Y118960D01*
X642408Y118059D01*
X642922Y117119D01*
X643367Y116144D01*
X643741Y115140D01*
X644043Y114112D01*
X644271Y113065D01*
X644424Y112004D01*
X644500Y110936D01*
X644500Y109864D01*
X644424Y108796D01*
X644271Y107735D01*
X644043Y106688D01*
X643741Y105660D01*
X643367Y104656D01*
X642922Y103681D01*
X642408Y102741D01*
X641829Y101840D01*
X641187Y100982D01*
X640485Y100172D01*
X639728Y99415D01*
X638918Y98713D01*
X638060Y98071D01*
X637159Y97492D01*
X636219Y96978D01*
X635244Y96533D01*
X634240Y96159D01*
X633212Y95857D01*
X632165Y95629D01*
X631104Y95476D01*
X630036Y95400D01*
X628964Y95400D01*
X627896Y95476D01*
X626835Y95629D01*
X625788Y95857D01*
X624760Y96159D01*
X623756Y96533D01*
X622781Y96978D01*
X621841Y97492D01*
X620940Y98071D01*
X620082Y98713D01*
X619272Y99415D01*
X618515Y100172D01*
X617813Y100982D01*
X617171Y101840D01*
X616592Y102741D01*
X616078Y103681D01*
X615633Y104656D01*
X615259Y105660D01*
X614957Y106688D01*
X614729Y107735D01*
X614576Y108796D01*
X614500Y109864D01*
X614500Y110936D01*
X792500Y110936D02*
X792576Y112004D01*
X792729Y113065D01*
X792957Y114112D01*
X793259Y115140D01*
X793633Y116144D01*
X794078Y117119D01*
X794592Y118059D01*
X795171Y118960D01*
X795813Y119818D01*
X796515Y120628D01*
X797272Y121385D01*
X798082Y122087D01*
X798940Y122729D01*
X799841Y123308D01*
X800781Y123822D01*
X801756Y124267D01*
X802760Y124641D01*
X803788Y124943D01*
X804835Y125171D01*
X805896Y125324D01*
X806964Y125400D01*
X808036Y125400D01*
X809104Y125324D01*
X810165Y125171D01*
X811212Y124943D01*
X812240Y124641D01*
X813244Y124267D01*
X814219Y123822D01*
X815159Y123308D01*
X816060Y122729D01*
X816918Y122087D01*
X817728Y121385D01*
X818485Y120628D01*
X819187Y119818D01*
X819829Y118960D01*
X820408Y118059D01*
X820922Y117119D01*
X821367Y116144D01*
X821741Y115140D01*
X822043Y114112D01*
X822271Y113065D01*
X822424Y112004D01*
X822500Y110936D01*
X822500Y109864D01*
X822424Y108796D01*
X822271Y107735D01*
X822043Y106688D01*
X821741Y105660D01*
X821367Y104656D01*
X820922Y103681D01*
X820408Y102741D01*
X819829Y101840D01*
X819187Y100982D01*
X818485Y100172D01*
X817728Y99415D01*
X816918Y98713D01*
X816060Y98071D01*
X815159Y97492D01*
X814219Y96978D01*
X813244Y96533D01*
X812240Y96159D01*
X811212Y95857D01*
X810165Y95629D01*
X809104Y95476D01*
X808036Y95400D01*
X806964Y95400D01*
X805896Y95476D01*
X804835Y95629D01*
X803788Y95857D01*
X802760Y96159D01*
X801756Y96533D01*
X800781Y96978D01*
X799841Y97492D01*
X798940Y98071D01*
X798082Y98713D01*
X797272Y99415D01*
X796515Y100172D01*
X795813Y100982D01*
X795171Y101840D01*
X794592Y102741D01*
X794078Y103681D01*
X793633Y104656D01*
X793259Y105660D01*
X792957Y106688D01*
X792729Y107735D01*
X792576Y108796D01*
X792500Y109864D01*
X792500Y110936D01*
X485664Y479780D02*
X484596Y479856D01*
X483535Y480009D01*
X482488Y480237D01*
X481460Y480539D01*
X480456Y480913D01*
X479481Y481358D01*
X478541Y481872D01*
X477640Y482451D01*
X476782Y483093D01*
X475972Y483795D01*
X475215Y484552D01*
X474513Y485362D01*
X473871Y486220D01*
X473292Y487121D01*
X472778Y488061D01*
X472333Y489036D01*
X471959Y490040D01*
X471657Y491068D01*
X471429Y492115D01*
X471276Y493176D01*
X471200Y494244D01*
X471200Y495316D01*
X471276Y496384D01*
X471429Y497445D01*
X471657Y498492D01*
X471959Y499520D01*
X472333Y500524D01*
X472778Y501499D01*
X473292Y502439D01*
X473871Y503340D01*
X474513Y504198D01*
X475215Y505008D01*
X475972Y505765D01*
X476782Y506467D01*
X477640Y507109D01*
X478541Y507688D01*
X479481Y508202D01*
X480456Y508647D01*
X481460Y509021D01*
X482488Y509323D01*
X483535Y509551D01*
X484596Y509704D01*
X485664Y509780D01*
X486736Y509780D01*
X487804Y509704D01*
X488865Y509551D01*
X489912Y509323D01*
X490940Y509021D01*
X491944Y508647D01*
X492919Y508202D01*
X493859Y507688D01*
X494760Y507109D01*
X495618Y506467D01*
X496428Y505765D01*
X497185Y505008D01*
X497887Y504198D01*
X498529Y503340D01*
X499108Y502439D01*
X499622Y501499D01*
X500067Y500524D01*
X500441Y499520D01*
X500743Y498492D01*
X500971Y497445D01*
X501124Y496384D01*
X501200Y495316D01*
X501200Y494244D01*
X501124Y493176D01*
X500971Y492115D01*
X500743Y491068D01*
X500441Y490040D01*
X500067Y489036D01*
X499622Y488061D01*
X499108Y487121D01*
X498529Y486220D01*
X497887Y485362D01*
X497185Y484552D01*
X496428Y483795D01*
X495618Y483093D01*
X494760Y482451D01*
X493859Y481872D01*
X492919Y481358D01*
X491944Y480913D01*
X490940Y480539D01*
X489912Y480237D01*
X488865Y480009D01*
X487804Y479856D01*
X486736Y479780D01*
X485664Y479780D01*
X333264Y182600D02*
X332196Y182676D01*
X331135Y182829D01*
X330088Y183057D01*
X329060Y183359D01*
X328056Y183733D01*
X327081Y184178D01*
X326141Y184692D01*
X325240Y185271D01*
X324382Y185913D01*
X323572Y186615D01*
X322815Y187372D01*
X322113Y188182D01*
X321471Y189040D01*
X320892Y189941D01*
X320378Y190881D01*
X319933Y191856D01*
X319559Y192860D01*
X319257Y193888D01*
X319029Y194935D01*
X318876Y195996D01*
X318800Y197064D01*
X318800Y198136D01*
X318876Y199204D01*
X319029Y200265D01*
X319257Y201312D01*
X319559Y202340D01*
X319933Y203344D01*
X320378Y204319D01*
X320892Y205259D01*
X321471Y206160D01*
X322113Y207018D01*
X322815Y207828D01*
X323572Y208585D01*
X324382Y209287D01*
X325240Y209929D01*
X326141Y210508D01*
X327081Y211022D01*
X328056Y211467D01*
X329060Y211841D01*
X330088Y212143D01*
X331135Y212371D01*
X332196Y212524D01*
X333264Y212600D01*
X334336Y212600D01*
X335404Y212524D01*
X336465Y212371D01*
X337512Y212143D01*
X338540Y211841D01*
X339544Y211467D01*
X340519Y211022D01*
X341459Y210508D01*
X342360Y209929D01*
X343218Y209287D01*
X344028Y208585D01*
X344785Y207828D01*
X345487Y207018D01*
X346129Y206160D01*
X346708Y205259D01*
X347222Y204319D01*
X347667Y203344D01*
X348041Y202340D01*
X348343Y201312D01*
X348571Y200265D01*
X348724Y199204D01*
X348800Y198136D01*
X348800Y197064D01*
X348724Y195996D01*
X348571Y194935D01*
X348343Y193888D01*
X348041Y192860D01*
X347667Y191856D01*
X347222Y190881D01*
X346708Y189941D01*
X346129Y189040D01*
X345487Y188182D01*
X344785Y187372D01*
X344028Y186615D01*
X343218Y185913D01*
X342360Y185271D01*
X341459Y184692D01*
X340519Y184178D01*
X339544Y183733D01*
X338540Y183359D01*
X337512Y183057D01*
X336465Y182829D01*
X335404Y182676D01*
X334336Y182600D01*
X333264Y182600D01*
M02*
