G04 EAGLE Gerber X2 export*
%TF.Part,Single*%
%TF.FileFunction,Copper,L2,Bot,Mixed*%
%TF.FilePolarity,Positive*%
%TF.GenerationSoftware,Autodesk,EAGLE,8.7.0*%
%TF.CreationDate,2019-01-30T20:44:03Z*%
G75*
%MOMM*%
%FSLAX34Y34*%
%LPD*%
%AMOC8*
5,1,8,0,0,1.08239X$1,22.5*%
G01*
%ADD10P,1.632244X8X292.500000*%
%ADD11C,1.790700*%
%ADD12C,1.320800*%
%ADD13C,2.540000*%
%ADD14C,1.981200*%
%ADD15P,1.814519X8X112.500000*%
%ADD16R,2.100000X2.100000*%
%ADD17P,1.429621X8X112.500000*%
%ADD18P,1.429621X8X292.500000*%
%ADD19P,1.429621X8X22.500000*%
%ADD20C,3.009900*%
%ADD21C,3.327400*%
%ADD22C,1.428000*%
%ADD23C,1.422400*%
%ADD24R,2.500000X2.500000*%
%ADD25C,0.756400*%
%ADD26C,1.016000*%
%ADD27C,0.508000*%
%ADD28C,1.350000*%
%ADD29C,0.956400*%
%ADD30C,0.406400*%

G36*
X600050Y89631D02*
X600050Y89631D01*
X600101Y89633D01*
X600133Y89651D01*
X600169Y89659D01*
X600208Y89692D01*
X600253Y89716D01*
X600274Y89746D01*
X600302Y89769D01*
X600323Y89816D01*
X600353Y89858D01*
X600361Y89900D01*
X600373Y89928D01*
X600372Y89958D01*
X600380Y90000D01*
X600380Y189843D01*
X620158Y209620D01*
X622980Y209620D01*
X623054Y209637D01*
X623128Y209650D01*
X623139Y209657D01*
X623148Y209659D01*
X623177Y209683D01*
X623248Y209731D01*
X624051Y210534D01*
X629788Y213846D01*
X636187Y215561D01*
X642813Y215561D01*
X649212Y213846D01*
X654949Y210534D01*
X655752Y209731D01*
X655816Y209691D01*
X655878Y209647D01*
X655890Y209645D01*
X655899Y209640D01*
X655936Y209636D01*
X656020Y209620D01*
X670000Y209620D01*
X670050Y209631D01*
X670101Y209633D01*
X670133Y209651D01*
X670169Y209659D01*
X670208Y209692D01*
X670253Y209716D01*
X670274Y209746D01*
X670302Y209769D01*
X670323Y209816D01*
X670353Y209858D01*
X670361Y209900D01*
X670373Y209928D01*
X670372Y209958D01*
X670380Y210000D01*
X670380Y250000D01*
X670369Y250050D01*
X670367Y250101D01*
X670349Y250133D01*
X670341Y250169D01*
X670308Y250208D01*
X670284Y250253D01*
X670254Y250274D01*
X670231Y250302D01*
X670184Y250323D01*
X670142Y250353D01*
X670100Y250361D01*
X670072Y250373D01*
X670042Y250372D01*
X670000Y250380D01*
X630000Y250380D01*
X629942Y250367D01*
X629884Y250362D01*
X629855Y250346D01*
X629831Y250341D01*
X629804Y250318D01*
X629757Y250292D01*
X569757Y200292D01*
X569753Y200287D01*
X569747Y200284D01*
X569701Y200218D01*
X569652Y200154D01*
X569651Y200148D01*
X569647Y200142D01*
X569620Y200000D01*
X569620Y170158D01*
X559731Y160269D01*
X559691Y160204D01*
X559647Y160142D01*
X559645Y160130D01*
X559640Y160122D01*
X559636Y160085D01*
X559628Y160040D01*
X559627Y160038D01*
X559627Y160036D01*
X559620Y160000D01*
X559620Y90000D01*
X559631Y89950D01*
X559633Y89899D01*
X559651Y89867D01*
X559659Y89831D01*
X559692Y89792D01*
X559716Y89747D01*
X559746Y89726D01*
X559769Y89698D01*
X559816Y89677D01*
X559858Y89647D01*
X559900Y89639D01*
X559928Y89627D01*
X559958Y89628D01*
X560000Y89620D01*
X600000Y89620D01*
X600050Y89631D01*
G37*
G36*
X970164Y67475D02*
X970164Y67475D01*
X970328Y67482D01*
X970388Y67495D01*
X970449Y67501D01*
X970607Y67544D01*
X970768Y67580D01*
X970824Y67603D01*
X970883Y67619D01*
X971031Y67690D01*
X971183Y67753D01*
X971235Y67786D01*
X971290Y67813D01*
X971423Y67908D01*
X971561Y67998D01*
X971619Y68049D01*
X971656Y68075D01*
X971698Y68118D01*
X971796Y68204D01*
X979096Y75504D01*
X979201Y75631D01*
X979313Y75752D01*
X979345Y75803D01*
X979384Y75850D01*
X979466Y75993D01*
X979554Y76131D01*
X979578Y76188D01*
X979608Y76241D01*
X979663Y76396D01*
X979725Y76548D01*
X979738Y76608D01*
X979759Y76665D01*
X979785Y76827D01*
X979820Y76988D01*
X979825Y77065D01*
X979832Y77109D01*
X979831Y77170D01*
X979839Y77300D01*
X979839Y412700D01*
X979825Y412864D01*
X979818Y413028D01*
X979805Y413088D01*
X979799Y413148D01*
X979756Y413307D01*
X979720Y413468D01*
X979697Y413524D01*
X979681Y413583D01*
X979610Y413731D01*
X979547Y413883D01*
X979514Y413935D01*
X979487Y413989D01*
X979392Y414123D01*
X979302Y414261D01*
X979251Y414319D01*
X979225Y414356D01*
X979182Y414398D01*
X979096Y414496D01*
X974496Y419096D01*
X974369Y419201D01*
X974248Y419313D01*
X974197Y419345D01*
X974150Y419384D01*
X974007Y419466D01*
X973869Y419554D01*
X973812Y419578D01*
X973759Y419608D01*
X973604Y419663D01*
X973452Y419725D01*
X973392Y419738D01*
X973335Y419759D01*
X973173Y419785D01*
X973012Y419820D01*
X972935Y419825D01*
X972891Y419832D01*
X972830Y419831D01*
X972700Y419839D01*
X966029Y419839D01*
X958358Y421895D01*
X957831Y422199D01*
X957779Y422223D01*
X957730Y422254D01*
X957575Y422318D01*
X957423Y422389D01*
X957367Y422403D01*
X957314Y422425D01*
X957150Y422461D01*
X956987Y422503D01*
X956930Y422508D01*
X956873Y422520D01*
X956562Y422539D01*
X951052Y422539D01*
X942539Y431052D01*
X942539Y436562D01*
X942534Y436619D01*
X942537Y436677D01*
X942514Y436843D01*
X942499Y437010D01*
X942484Y437066D01*
X942476Y437123D01*
X942425Y437283D01*
X942381Y437444D01*
X942356Y437497D01*
X942338Y437552D01*
X942199Y437831D01*
X941895Y438358D01*
X939839Y446029D01*
X939839Y452700D01*
X939825Y452864D01*
X939818Y453028D01*
X939805Y453088D01*
X939799Y453148D01*
X939756Y453307D01*
X939720Y453468D01*
X939697Y453524D01*
X939681Y453583D01*
X939610Y453731D01*
X939547Y453883D01*
X939514Y453935D01*
X939487Y453989D01*
X939392Y454123D01*
X939302Y454261D01*
X939251Y454319D01*
X939225Y454356D01*
X939182Y454398D01*
X939096Y454496D01*
X931796Y461796D01*
X931769Y461818D01*
X931746Y461844D01*
X931597Y461961D01*
X931450Y462084D01*
X931420Y462102D01*
X931393Y462123D01*
X931225Y462213D01*
X931059Y462308D01*
X931027Y462319D01*
X930996Y462336D01*
X930815Y462395D01*
X930635Y462459D01*
X930601Y462464D01*
X930568Y462475D01*
X930379Y462501D01*
X930191Y462532D01*
X930156Y462532D01*
X930122Y462536D01*
X929931Y462529D01*
X929741Y462526D01*
X929706Y462519D01*
X929672Y462518D01*
X929486Y462477D01*
X929298Y462440D01*
X929266Y462428D01*
X929232Y462420D01*
X929056Y462347D01*
X928878Y462278D01*
X928849Y462260D01*
X928817Y462247D01*
X928657Y462143D01*
X928494Y462044D01*
X928468Y462021D01*
X928439Y462002D01*
X928204Y461796D01*
X918204Y451796D01*
X918099Y451669D01*
X917988Y451548D01*
X917955Y451497D01*
X917916Y451450D01*
X917834Y451307D01*
X917746Y451169D01*
X917722Y451112D01*
X917692Y451059D01*
X917637Y450904D01*
X917575Y450752D01*
X917562Y450692D01*
X917541Y450635D01*
X917515Y450473D01*
X917480Y450312D01*
X917475Y450235D01*
X917468Y450191D01*
X917469Y450130D01*
X917461Y450000D01*
X917461Y430000D01*
X917475Y429836D01*
X917482Y429672D01*
X917495Y429612D01*
X917501Y429552D01*
X917544Y429393D01*
X917580Y429232D01*
X917603Y429176D01*
X917619Y429117D01*
X917690Y428969D01*
X917753Y428817D01*
X917786Y428765D01*
X917813Y428711D01*
X917908Y428577D01*
X917998Y428439D01*
X918049Y428381D01*
X918075Y428344D01*
X918118Y428302D01*
X918204Y428204D01*
X938204Y408204D01*
X938331Y408099D01*
X938452Y407988D01*
X938503Y407955D01*
X938550Y407916D01*
X938693Y407834D01*
X938831Y407746D01*
X938888Y407722D01*
X938941Y407692D01*
X939096Y407637D01*
X939248Y407575D01*
X939308Y407562D01*
X939365Y407541D01*
X939527Y407515D01*
X939688Y407480D01*
X939765Y407475D01*
X939809Y407468D01*
X939870Y407469D01*
X940000Y407461D01*
X958948Y407461D01*
X967461Y398948D01*
X967461Y91052D01*
X958948Y82539D01*
X930000Y82539D01*
X929871Y82528D01*
X929741Y82526D01*
X929647Y82508D01*
X929552Y82499D01*
X929426Y82465D01*
X929298Y82440D01*
X929209Y82406D01*
X929117Y82381D01*
X929000Y82325D01*
X928878Y82278D01*
X928797Y82228D01*
X928711Y82187D01*
X928605Y82112D01*
X928494Y82044D01*
X928422Y81981D01*
X928344Y81925D01*
X928254Y81832D01*
X928156Y81746D01*
X928097Y81671D01*
X928030Y81603D01*
X927958Y81495D01*
X927877Y81393D01*
X927832Y81309D01*
X927778Y81230D01*
X927726Y81111D01*
X927664Y80996D01*
X927635Y80905D01*
X927596Y80818D01*
X927565Y80691D01*
X927525Y80568D01*
X927512Y80473D01*
X927489Y80380D01*
X927481Y80251D01*
X927464Y80122D01*
X927468Y80026D01*
X927462Y79931D01*
X927477Y79802D01*
X927482Y79672D01*
X927503Y79579D01*
X927514Y79484D01*
X927551Y79359D01*
X927580Y79232D01*
X927616Y79144D01*
X927644Y79053D01*
X927703Y78937D01*
X927753Y78817D01*
X927805Y78737D01*
X927848Y78651D01*
X927927Y78548D01*
X927998Y78439D01*
X928084Y78341D01*
X928120Y78293D01*
X928153Y78262D01*
X928204Y78204D01*
X937279Y69130D01*
X937314Y69101D01*
X937345Y69066D01*
X937486Y68957D01*
X937624Y68841D01*
X937664Y68819D01*
X937700Y68790D01*
X937859Y68707D01*
X938015Y68618D01*
X938058Y68603D01*
X938099Y68581D01*
X938270Y68527D01*
X938439Y68467D01*
X938485Y68460D01*
X938529Y68446D01*
X938707Y68423D01*
X938883Y68394D01*
X938929Y68394D01*
X938975Y68389D01*
X939154Y68398D01*
X939334Y68400D01*
X939379Y68409D01*
X939425Y68411D01*
X939731Y68473D01*
X946029Y70161D01*
X953971Y70161D01*
X961642Y68105D01*
X962169Y67801D01*
X962221Y67777D01*
X962270Y67746D01*
X962425Y67682D01*
X962577Y67611D01*
X962633Y67597D01*
X962686Y67575D01*
X962850Y67539D01*
X963013Y67497D01*
X963070Y67492D01*
X963127Y67480D01*
X963438Y67461D01*
X970000Y67461D01*
X970164Y67475D01*
G37*
G36*
X910050Y10172D02*
X910050Y10172D01*
X910101Y10174D01*
X910133Y10192D01*
X910169Y10200D01*
X910208Y10233D01*
X910253Y10257D01*
X910274Y10287D01*
X910302Y10310D01*
X910323Y10357D01*
X910353Y10399D01*
X910361Y10441D01*
X910373Y10469D01*
X910372Y10499D01*
X910380Y10541D01*
X910380Y120000D01*
X910374Y120025D01*
X910377Y120051D01*
X910355Y120109D01*
X910341Y120169D01*
X910324Y120189D01*
X910315Y120213D01*
X910270Y120255D01*
X910231Y120302D01*
X910207Y120313D01*
X910188Y120330D01*
X910129Y120348D01*
X910072Y120373D01*
X910047Y120372D01*
X910022Y120380D01*
X909961Y120369D01*
X909899Y120367D01*
X909877Y120354D01*
X909851Y120350D01*
X909780Y120302D01*
X909747Y120284D01*
X909741Y120276D01*
X909731Y120269D01*
X859843Y70380D01*
X840000Y70380D01*
X839950Y70369D01*
X839899Y70367D01*
X839867Y70349D01*
X839831Y70341D01*
X839792Y70308D01*
X839747Y70284D01*
X839726Y70254D01*
X839698Y70231D01*
X839677Y70184D01*
X839647Y70142D01*
X839639Y70100D01*
X839627Y70072D01*
X839628Y70042D01*
X839620Y70000D01*
X839620Y10541D01*
X839631Y10491D01*
X839633Y10440D01*
X839651Y10408D01*
X839659Y10372D01*
X839692Y10333D01*
X839716Y10288D01*
X839746Y10267D01*
X839769Y10239D01*
X839816Y10218D01*
X839858Y10188D01*
X839900Y10180D01*
X839928Y10168D01*
X839958Y10169D01*
X840000Y10161D01*
X910000Y10161D01*
X910050Y10172D01*
G37*
G36*
X690090Y559254D02*
X690090Y559254D01*
X690181Y559261D01*
X690211Y559273D01*
X690243Y559279D01*
X690323Y559321D01*
X690407Y559357D01*
X690439Y559383D01*
X690460Y559394D01*
X690482Y559417D01*
X690538Y559462D01*
X700538Y569462D01*
X700591Y569536D01*
X700651Y569605D01*
X700663Y569635D01*
X700682Y569661D01*
X700709Y569748D01*
X700743Y569833D01*
X700747Y569874D01*
X700754Y569897D01*
X700753Y569929D01*
X700761Y570000D01*
X700761Y580000D01*
X700747Y580090D01*
X700739Y580181D01*
X700727Y580211D01*
X700722Y580243D01*
X700679Y580323D01*
X700643Y580407D01*
X700617Y580439D01*
X700606Y580460D01*
X700583Y580482D01*
X700538Y580538D01*
X690538Y590538D01*
X690464Y590591D01*
X690395Y590651D01*
X690365Y590663D01*
X690339Y590682D01*
X690252Y590709D01*
X690167Y590743D01*
X690126Y590747D01*
X690103Y590754D01*
X690071Y590753D01*
X690000Y590761D01*
X600000Y590761D01*
X599910Y590747D01*
X599819Y590739D01*
X599789Y590727D01*
X599757Y590722D01*
X599677Y590679D01*
X599593Y590643D01*
X599561Y590617D01*
X599540Y590606D01*
X599518Y590583D01*
X599462Y590538D01*
X589462Y580538D01*
X589409Y580464D01*
X589349Y580395D01*
X589337Y580365D01*
X589318Y580339D01*
X589291Y580252D01*
X589257Y580167D01*
X589253Y580126D01*
X589246Y580103D01*
X589247Y580071D01*
X589239Y580000D01*
X589239Y570000D01*
X589254Y569910D01*
X589261Y569819D01*
X589273Y569789D01*
X589279Y569757D01*
X589321Y569677D01*
X589357Y569593D01*
X589383Y569561D01*
X589394Y569540D01*
X589417Y569518D01*
X589462Y569462D01*
X599462Y559462D01*
X599536Y559409D01*
X599605Y559349D01*
X599635Y559337D01*
X599661Y559318D01*
X599748Y559291D01*
X599833Y559257D01*
X599874Y559253D01*
X599897Y559246D01*
X599929Y559247D01*
X600000Y559239D01*
X690000Y559239D01*
X690090Y559254D01*
G37*
G36*
X830090Y589254D02*
X830090Y589254D01*
X830181Y589261D01*
X830211Y589273D01*
X830243Y589279D01*
X830323Y589321D01*
X830407Y589357D01*
X830439Y589383D01*
X830460Y589394D01*
X830482Y589417D01*
X830538Y589462D01*
X835402Y594326D01*
X835457Y594401D01*
X835517Y594473D01*
X835528Y594501D01*
X835546Y594525D01*
X835573Y594614D01*
X835608Y594701D01*
X835609Y594732D01*
X835618Y594760D01*
X835616Y594854D01*
X835621Y594947D01*
X835613Y594976D01*
X835612Y595006D01*
X835580Y595094D01*
X835555Y595184D01*
X835535Y595217D01*
X835527Y595237D01*
X835507Y595263D01*
X835468Y595327D01*
X834793Y596207D01*
X833640Y598203D01*
X832758Y600334D01*
X832161Y602561D01*
X831909Y604477D01*
X840000Y604477D01*
X840020Y604480D01*
X840039Y604478D01*
X840141Y604500D01*
X840243Y604517D01*
X840260Y604526D01*
X840280Y604530D01*
X840369Y604583D01*
X840460Y604632D01*
X840474Y604646D01*
X840491Y604656D01*
X840558Y604735D01*
X840630Y604810D01*
X840638Y604828D01*
X840651Y604843D01*
X840690Y604939D01*
X840733Y605033D01*
X840735Y605053D01*
X840743Y605071D01*
X840761Y605238D01*
X840761Y606762D01*
X840759Y606776D01*
X840760Y606787D01*
X840759Y606792D01*
X840760Y606801D01*
X840738Y606903D01*
X840722Y607005D01*
X840712Y607022D01*
X840708Y607042D01*
X840655Y607131D01*
X840606Y607222D01*
X840592Y607236D01*
X840582Y607253D01*
X840503Y607320D01*
X840428Y607391D01*
X840410Y607400D01*
X840395Y607413D01*
X840299Y607452D01*
X840205Y607495D01*
X840185Y607497D01*
X840167Y607505D01*
X840000Y607523D01*
X831909Y607523D01*
X832161Y609439D01*
X832758Y611666D01*
X833640Y613797D01*
X834681Y615598D01*
X834696Y615639D01*
X834720Y615676D01*
X834739Y615754D01*
X834767Y615828D01*
X834769Y615872D01*
X834780Y615915D01*
X834774Y615994D01*
X834777Y616074D01*
X834764Y616116D01*
X834761Y616160D01*
X834729Y616233D01*
X834707Y616310D01*
X834681Y616346D01*
X834664Y616386D01*
X834573Y616500D01*
X834565Y616511D01*
X834563Y616513D01*
X834560Y616517D01*
X830538Y620538D01*
X830464Y620591D01*
X830395Y620651D01*
X830365Y620663D01*
X830339Y620682D01*
X830252Y620709D01*
X830167Y620743D01*
X830126Y620747D01*
X830103Y620754D01*
X830071Y620753D01*
X830000Y620761D01*
X790000Y620761D01*
X789910Y620747D01*
X789819Y620739D01*
X789789Y620727D01*
X789757Y620722D01*
X789677Y620679D01*
X789593Y620643D01*
X789561Y620617D01*
X789540Y620606D01*
X789518Y620583D01*
X789462Y620538D01*
X785806Y616882D01*
X785751Y616806D01*
X785691Y616735D01*
X785680Y616707D01*
X785662Y616682D01*
X785635Y616593D01*
X785600Y616507D01*
X785599Y616476D01*
X785590Y616447D01*
X785592Y616354D01*
X785587Y616261D01*
X785595Y616232D01*
X785596Y616201D01*
X785628Y616114D01*
X785653Y616024D01*
X785673Y615991D01*
X785681Y615970D01*
X785701Y615945D01*
X785740Y615880D01*
X785807Y615793D01*
X786960Y613797D01*
X787842Y611666D01*
X788439Y609439D01*
X788691Y607523D01*
X780000Y607523D01*
X779980Y607520D01*
X779961Y607522D01*
X779859Y607500D01*
X779757Y607483D01*
X779740Y607474D01*
X779720Y607470D01*
X779631Y607417D01*
X779540Y607368D01*
X779526Y607354D01*
X779509Y607344D01*
X779442Y607265D01*
X779371Y607190D01*
X779362Y607172D01*
X779349Y607157D01*
X779310Y607061D01*
X779267Y606967D01*
X779265Y606947D01*
X779257Y606929D01*
X779239Y606762D01*
X779239Y605238D01*
X779242Y605218D01*
X779240Y605199D01*
X779262Y605097D01*
X779279Y604995D01*
X779288Y604978D01*
X779292Y604958D01*
X779345Y604869D01*
X779394Y604778D01*
X779408Y604764D01*
X779418Y604747D01*
X779497Y604680D01*
X779572Y604609D01*
X779590Y604600D01*
X779605Y604587D01*
X779701Y604548D01*
X779795Y604505D01*
X779815Y604503D01*
X779833Y604495D01*
X780000Y604477D01*
X788691Y604477D01*
X788439Y602561D01*
X787842Y600334D01*
X786960Y598203D01*
X785807Y596207D01*
X784872Y594988D01*
X784828Y594906D01*
X784777Y594827D01*
X784770Y594798D01*
X784755Y594771D01*
X784740Y594679D01*
X784717Y594589D01*
X784719Y594559D01*
X784714Y594529D01*
X784729Y594436D01*
X784736Y594343D01*
X784748Y594316D01*
X784753Y594286D01*
X784796Y594203D01*
X784832Y594117D01*
X784856Y594087D01*
X784867Y594068D01*
X784890Y594045D01*
X784937Y593986D01*
X789462Y589462D01*
X789536Y589409D01*
X789605Y589349D01*
X789635Y589337D01*
X789661Y589318D01*
X789749Y589291D01*
X789833Y589257D01*
X789874Y589253D01*
X789897Y589246D01*
X789929Y589247D01*
X790000Y589239D01*
X830000Y589239D01*
X830090Y589254D01*
G37*
D10*
X378456Y646532D03*
D11*
X929267Y125646D02*
X947174Y125646D01*
X947174Y176446D02*
X929267Y176446D01*
D10*
X429590Y646734D03*
X404026Y646684D03*
D11*
X928977Y336488D02*
X946884Y336488D01*
X946884Y387288D02*
X928977Y387288D01*
D12*
X617100Y478396D02*
X617100Y491604D01*
X617100Y390004D02*
X617100Y376796D01*
D11*
X61532Y159118D02*
X43625Y159118D01*
X43625Y108318D02*
X61532Y108318D01*
D13*
X601860Y64200D02*
X601860Y38800D01*
X810140Y38800D02*
X810140Y64200D01*
X759340Y64200D02*
X759340Y38800D01*
X652660Y38800D02*
X652660Y64200D01*
X140560Y628800D02*
X140560Y654200D01*
X348840Y654200D02*
X348840Y628800D01*
X298040Y628800D02*
X298040Y654200D01*
X191360Y654200D02*
X191360Y628800D01*
D10*
X455178Y646968D03*
D14*
X658144Y429400D02*
X677956Y429400D01*
X678464Y369710D02*
X698276Y369710D01*
X698276Y489090D02*
X678464Y489090D01*
X800384Y489090D02*
X820196Y489090D01*
X820196Y369710D02*
X800384Y369710D01*
D11*
X929621Y231086D02*
X947528Y231086D01*
X947528Y281886D02*
X929621Y281886D01*
D15*
X382900Y71400D03*
X382900Y96800D03*
D16*
X686500Y240800D03*
X728500Y240800D03*
X770500Y240800D03*
X770500Y185800D03*
X728500Y185800D03*
X686500Y185800D03*
D12*
X158780Y475056D02*
X145572Y475056D01*
X145572Y449656D02*
X158780Y449656D01*
X234980Y449656D02*
X248188Y449656D01*
X248188Y475056D02*
X234980Y475056D01*
X158780Y424256D02*
X145572Y424256D01*
X234980Y424256D02*
X248188Y424256D01*
X158976Y370286D02*
X145768Y370286D01*
X145768Y344886D02*
X158976Y344886D01*
X235176Y344886D02*
X248384Y344886D01*
X248384Y370286D02*
X235176Y370286D01*
X158976Y319486D02*
X145768Y319486D01*
X235176Y319486D02*
X248384Y319486D01*
X158722Y264274D02*
X145514Y264274D01*
X145514Y238874D02*
X158722Y238874D01*
X234922Y238874D02*
X248130Y238874D01*
X248130Y264274D02*
X234922Y264274D01*
X158722Y213474D02*
X145514Y213474D01*
X234922Y213474D02*
X248130Y213474D01*
X158628Y157754D02*
X145420Y157754D01*
X145420Y132354D02*
X158628Y132354D01*
X234828Y132354D02*
X248036Y132354D01*
X248036Y157754D02*
X234828Y157754D01*
X158628Y106954D02*
X145420Y106954D01*
X234828Y106954D02*
X248036Y106954D01*
D17*
X120696Y408178D03*
X120696Y484378D03*
D18*
X690048Y606200D03*
X690048Y530000D03*
D19*
X774166Y318126D03*
X850366Y318126D03*
X533800Y150000D03*
X610000Y150000D03*
D18*
X536000Y656200D03*
X536000Y580000D03*
D17*
X544950Y416450D03*
X544950Y492650D03*
D19*
X263800Y32000D03*
X340000Y32000D03*
D18*
X287576Y484632D03*
X287576Y408432D03*
D17*
X120188Y302514D03*
X120188Y378714D03*
D18*
X288338Y383540D03*
X288338Y307340D03*
D17*
X120696Y199390D03*
X120696Y275590D03*
D18*
X289608Y276098D03*
X289608Y199898D03*
D17*
X122728Y94996D03*
X122728Y171196D03*
D18*
X289284Y170846D03*
X289284Y94646D03*
D20*
X849451Y646132D02*
X879550Y646132D01*
X879550Y606000D02*
X849451Y606000D01*
X849451Y565868D02*
X879550Y565868D01*
X771150Y646132D02*
X741051Y646132D01*
X741051Y606000D02*
X771150Y606000D01*
X771150Y565868D02*
X741051Y565868D01*
D11*
X61278Y263258D02*
X43371Y263258D01*
X43371Y212458D02*
X61278Y212458D01*
X61058Y471554D02*
X43151Y471554D01*
X43151Y420754D02*
X61058Y420754D01*
X61058Y367444D02*
X43151Y367444D01*
X43151Y316644D02*
X61058Y316644D01*
D19*
X615600Y621700D03*
X641000Y621700D03*
X641000Y647100D03*
D21*
X953630Y511446D03*
X1010526Y511700D03*
X953630Y643018D03*
X1010526Y642764D03*
D22*
X983602Y565294D03*
X983602Y586630D03*
X957440Y565294D03*
X957440Y586376D03*
X983602Y613808D03*
X983602Y540910D03*
X957440Y613808D03*
X957440Y540910D03*
D23*
X197300Y37112D02*
X197300Y22888D01*
X222700Y22888D02*
X222700Y37112D01*
D11*
X60912Y575632D02*
X43005Y575632D01*
X43005Y524832D02*
X60912Y524832D01*
D24*
X496360Y548120D03*
X323640Y548120D03*
X323640Y151880D03*
X496360Y151880D03*
D18*
X720000Y297808D03*
X739050Y310508D03*
X720000Y323208D03*
D12*
X646070Y128082D02*
X646070Y114874D01*
X671470Y114874D02*
X671470Y128082D01*
X696870Y128082D02*
X696870Y114874D01*
X722270Y114874D02*
X722270Y128082D01*
X747670Y128082D02*
X747670Y114874D01*
X773070Y114874D02*
X773070Y128082D01*
X798470Y128082D02*
X798470Y114874D01*
X823870Y114874D02*
X823870Y128082D01*
D25*
X196447Y530000D03*
D26*
X191279Y524832D01*
X51958Y524832D01*
D27*
X480446Y621700D02*
X615600Y621700D01*
X480446Y621700D02*
X455178Y646968D01*
X736792Y340000D02*
X720000Y323208D01*
X736792Y340000D02*
X860000Y340000D01*
D28*
X860000Y340000D03*
D26*
X938574Y281886D02*
X961886Y281886D01*
X970000Y290000D01*
X970000Y400000D01*
D28*
X920000Y480000D03*
D26*
X921684Y454840D02*
X921684Y448316D01*
X921684Y454840D02*
X920000Y456524D01*
X920000Y480000D01*
X921684Y448316D02*
X970000Y400000D01*
D28*
X928719Y520534D03*
D26*
X928719Y585087D01*
X957440Y613808D01*
X900000Y214666D02*
X938220Y176446D01*
X900000Y214666D02*
X900000Y250000D01*
X931886Y281886D01*
X938574Y281886D01*
X100000Y110000D02*
X50000Y160000D01*
X100000Y110000D02*
X100000Y90000D01*
X130000Y60000D01*
X200000Y60000D01*
X220000Y40000D01*
X220000Y30000D01*
X222700Y30000D01*
X52578Y159118D02*
X50000Y160000D01*
D28*
X370000Y550000D03*
D26*
X496360Y548120D02*
X585482Y548120D01*
X615950Y517652D01*
X615950Y486150D01*
X617100Y485000D01*
X618890Y489090D02*
X688370Y489090D01*
X618890Y489090D02*
X615950Y486150D01*
D28*
X550000Y180814D03*
X390000Y480000D03*
D26*
X370000Y500000D01*
X370000Y550000D01*
X370000Y638076D01*
X378456Y646532D01*
X550000Y210000D02*
X550000Y180814D01*
X550000Y210000D02*
X610000Y270000D01*
X860000Y270000D01*
X870000Y260000D01*
D25*
X870000Y260000D03*
D26*
X260000Y449656D02*
X234980Y449656D01*
X260000Y449656D02*
X310344Y449656D01*
X330000Y430000D02*
X330000Y360000D01*
X330000Y250000D01*
X330000Y230000D01*
X332160Y227840D01*
X346326Y227840D01*
X364040Y210126D01*
X364040Y195960D01*
X330000Y430000D02*
X310344Y449656D01*
X314886Y344886D02*
X235176Y344886D01*
X314886Y344886D02*
X330000Y360000D01*
X260000Y238874D02*
X234922Y238874D01*
X260000Y238874D02*
X318874Y238874D01*
X330000Y250000D01*
D27*
X260000Y449656D02*
X260000Y650000D01*
X429590Y646734D02*
X450000Y667144D01*
X450000Y667300D01*
X524900Y667300D01*
X536000Y656200D01*
D26*
X252354Y132354D02*
X234828Y132354D01*
X252354Y132354D02*
X270000Y150000D01*
X270000Y228874D01*
X260000Y238874D01*
D27*
X287300Y677300D02*
X399024Y677300D01*
X429590Y646734D01*
X287300Y677300D02*
X260000Y650000D01*
D26*
X364040Y195960D02*
X450000Y110000D01*
X540000Y110000D01*
D25*
X540000Y110000D03*
D26*
X250804Y408432D02*
X234980Y424256D01*
X250804Y408432D02*
X287576Y408432D01*
D29*
X440000Y140000D03*
D27*
X380000Y200000D01*
D29*
X350000Y400000D03*
D27*
X380000Y220000D02*
X380000Y200000D01*
X380000Y220000D02*
X350000Y250000D01*
X350000Y400000D01*
D25*
X710000Y80000D03*
D30*
X735320Y80000D01*
X746506Y91186D01*
X746506Y120314D01*
X747670Y121478D01*
D29*
X394970Y138938D03*
D27*
X502653Y31255D01*
X511255Y31255D01*
D29*
X511255Y31255D03*
D30*
X522321Y20189D01*
X659811Y20189D01*
D25*
X659811Y20189D03*
D27*
X319606Y169900D02*
X289608Y199898D01*
X450000Y60000D02*
X460000Y60000D01*
D29*
X460000Y60000D03*
D27*
X340100Y169900D02*
X319606Y169900D01*
X340100Y169900D02*
X450000Y60000D01*
D25*
X510000Y90000D03*
D30*
X490000Y70000D01*
D25*
X490000Y70000D03*
D29*
X350000Y50000D03*
D27*
X470000Y50000D01*
X507300Y12700D01*
D30*
X507808Y12192D01*
X662192Y12192D02*
X671470Y21470D01*
X662192Y12192D02*
X507808Y12192D01*
X671470Y21470D02*
X671470Y121478D01*
D27*
X690048Y606200D02*
X674548Y621700D01*
X641000Y621700D01*
X617100Y383400D02*
X674680Y383400D01*
X688370Y369710D01*
X700048Y520000D02*
X690048Y530000D01*
X700048Y520000D02*
X860000Y520000D01*
X880000Y500000D01*
D28*
X880000Y500000D03*
X880000Y450000D03*
D27*
X880000Y110000D01*
X870000Y100000D01*
D28*
X870000Y100000D03*
D27*
X404026Y205974D02*
X404026Y646684D01*
X458120Y151880D02*
X496360Y151880D01*
X458120Y151880D02*
X404026Y205974D01*
X544250Y415750D02*
X544950Y416450D01*
D26*
X716000Y606000D02*
X756100Y606000D01*
X716000Y606000D02*
X680000Y570000D01*
X570000Y570000D01*
D28*
X570000Y570000D03*
X500000Y220000D03*
D26*
X500000Y155520D01*
X496360Y151880D01*
X756100Y606000D02*
X864500Y606000D01*
X496360Y151880D02*
X498240Y150000D01*
X533800Y150000D01*
X533800Y405300D01*
X544250Y415750D01*
X610000Y150000D02*
X692700Y150000D01*
X728500Y185800D01*
D28*
X860000Y220000D03*
D27*
X860000Y110000D01*
X850000Y100000D01*
D28*
X850000Y100000D03*
X670814Y510000D03*
D27*
X650000Y510000D01*
X610000Y550000D01*
D28*
X610000Y550000D03*
X570000Y590000D03*
D27*
X546000Y590000D01*
X536000Y580000D01*
D25*
X590000Y490000D03*
D26*
X587350Y492650D01*
X544950Y492650D01*
D13*
X810140Y51500D02*
X864074Y51500D01*
X938220Y125646D01*
X686500Y240800D02*
X620800Y240800D01*
X580000Y200000D01*
X580000Y70000D02*
X600000Y50000D01*
X580000Y70000D02*
X580000Y200000D01*
X583360Y70000D02*
X601860Y51500D01*
X583360Y70000D02*
X580000Y70000D01*
D26*
X923512Y336488D02*
X937930Y336488D01*
X850000Y449380D02*
X810290Y489090D01*
X850000Y449380D02*
X850000Y380000D01*
D28*
X850000Y380000D03*
D26*
X945128Y485240D02*
X864500Y565868D01*
X945128Y485240D02*
X970000Y485240D01*
X983602Y498842D01*
X983602Y540910D01*
D25*
X490000Y450000D03*
X480000Y450000D03*
X470000Y450000D03*
X470000Y440000D03*
X480000Y440000D03*
X490000Y440000D03*
X490000Y430000D03*
X480000Y430000D03*
X470000Y430000D03*
X460000Y430000D03*
X460000Y420000D03*
X470000Y420000D03*
X480000Y420000D03*
X490000Y420000D03*
X490000Y410000D03*
X480000Y410000D03*
X460000Y410000D03*
X470000Y410000D03*
X460000Y400000D03*
X470000Y400000D03*
X480000Y400000D03*
X490000Y400000D03*
X490000Y390000D03*
X470000Y390000D03*
X460000Y390000D03*
X480000Y390000D03*
X480000Y380000D03*
X470000Y380000D03*
X460000Y380000D03*
X490000Y380000D03*
X490000Y370000D03*
X480000Y370000D03*
X470000Y370000D03*
X460000Y370000D03*
X490000Y360000D03*
X480000Y360000D03*
X470000Y360000D03*
X460000Y360000D03*
X460000Y350000D03*
X470000Y350000D03*
X480000Y350000D03*
X490000Y350000D03*
X490000Y340000D03*
X480000Y340000D03*
X470000Y340000D03*
X460000Y340000D03*
X460000Y330000D03*
X470000Y330000D03*
X480000Y330000D03*
X490000Y330000D03*
X490000Y320000D03*
X480000Y320000D03*
X470000Y320000D03*
X460000Y320000D03*
X460000Y310000D03*
X470000Y310000D03*
X480000Y310000D03*
X490000Y310000D03*
X490000Y300000D03*
X480000Y300000D03*
X470000Y300000D03*
X460000Y300000D03*
X460000Y280000D03*
X460000Y290000D03*
X470000Y290000D03*
X470000Y280000D03*
X480000Y290000D03*
X480000Y280000D03*
X490000Y290000D03*
X490000Y280000D03*
X470000Y460000D03*
X480000Y460000D03*
X490000Y460000D03*
X460000Y270000D03*
X470000Y270000D03*
X480000Y270000D03*
X490000Y270000D03*
X460000Y460000D03*
X460000Y450000D03*
X460000Y440000D03*
M02*
