G04 EAGLE Gerber X2 export*
%TF.Part,Single*%
%TF.FileFunction,Legend,Bot,1*%
%TF.FilePolarity,Positive*%
%TF.GenerationSoftware,Autodesk,EAGLE,8.7.0*%
%TF.CreationDate,2019-01-30T20:44:03Z*%
G75*
%MOMM*%
%FSLAX34Y34*%
%LPD*%
%AMOC8*
5,1,8,0,0,1.08239X$1,22.5*%
G01*
%ADD10R,0.080000X0.160000*%
%ADD11R,0.080000X0.240000*%
%ADD12R,0.080000X0.560000*%
%ADD13R,0.080000X0.880000*%
%ADD14R,0.080000X0.320000*%
%ADD15R,0.080000X0.720000*%
%ADD16R,0.080000X1.040000*%
%ADD17R,0.080000X2.000000*%
%ADD18R,0.080000X2.560000*%
%ADD19R,0.080000X3.040000*%
%ADD20R,0.080000X3.440000*%
%ADD21R,0.080000X1.280000*%
%ADD22R,0.080000X1.200000*%
%ADD23R,0.080000X0.960000*%
%ADD24R,0.080000X0.800000*%
%ADD25R,0.080000X0.640000*%
%ADD26R,0.080000X0.480000*%
%ADD27R,0.080000X0.400000*%
%ADD28R,0.080000X0.080000*%
%ADD29R,0.080000X2.640000*%
%ADD30R,0.080000X2.240000*%
%ADD31R,0.080000X2.320000*%
%ADD32R,0.080000X1.120000*%
%ADD33R,0.080000X1.600000*%
%ADD34R,0.080000X1.680000*%
%ADD35R,0.080000X1.760000*%
%ADD36R,0.080000X2.400000*%
%ADD37R,0.080000X2.720000*%
%ADD38R,0.080000X1.440000*%
%ADD39R,0.080000X4.480000*%


D10*
X356800Y272400D03*
D11*
X356800Y264800D03*
D10*
X356800Y255600D03*
D12*
X356800Y242400D03*
D10*
X356800Y234000D03*
D13*
X356800Y224800D03*
D10*
X357600Y272400D03*
D14*
X357600Y264400D03*
D10*
X357600Y255600D03*
D13*
X357600Y244000D03*
D10*
X357600Y234000D03*
D13*
X357600Y224800D03*
D10*
X358400Y272400D03*
D14*
X358400Y264400D03*
D10*
X358400Y255600D03*
D14*
X358400Y247600D03*
D10*
X358400Y240400D03*
X358400Y234000D03*
X358400Y221200D03*
X359200Y266000D03*
D11*
X359200Y263200D03*
X359200Y248800D03*
D10*
X359200Y240400D03*
X359200Y221200D03*
X360000Y266000D03*
X360000Y262800D03*
D11*
X360000Y249600D03*
D10*
X360000Y240400D03*
X360000Y221200D03*
X360800Y266000D03*
X360800Y262800D03*
X360800Y250000D03*
X360800Y240400D03*
X360800Y221200D03*
X361600Y266800D03*
D11*
X361600Y262400D03*
D10*
X361600Y250000D03*
X361600Y240400D03*
X361600Y221200D03*
X362400Y266800D03*
X362400Y262000D03*
D11*
X362400Y250400D03*
D10*
X362400Y240400D03*
X362400Y221200D03*
X363200Y266800D03*
X363200Y262000D03*
X363200Y250800D03*
X363200Y240400D03*
X363200Y221200D03*
X364000Y267600D03*
D11*
X364000Y261600D03*
D10*
X364000Y250800D03*
X364000Y240400D03*
X364000Y221200D03*
X364800Y267600D03*
X364800Y261200D03*
X364800Y250800D03*
X364800Y240400D03*
D15*
X364800Y224000D03*
D16*
X364800Y164800D03*
D10*
X365600Y267600D03*
X365600Y261200D03*
X365600Y250800D03*
X365600Y240400D03*
D11*
X365600Y221600D03*
D17*
X365600Y164800D03*
D10*
X366400Y268400D03*
D11*
X366400Y260800D03*
X366400Y250400D03*
D10*
X366400Y240400D03*
X366400Y221200D03*
D18*
X366400Y164400D03*
D10*
X367200Y268400D03*
X367200Y260400D03*
D11*
X367200Y250400D03*
D10*
X367200Y240400D03*
X367200Y221200D03*
D19*
X367200Y164400D03*
D11*
X368000Y268800D03*
D10*
X368000Y260400D03*
X368000Y250000D03*
X368000Y240400D03*
X368000Y221200D03*
D20*
X368000Y164800D03*
D10*
X368800Y269200D03*
D11*
X368800Y260000D03*
X368800Y249600D03*
D10*
X368800Y240400D03*
X368800Y221200D03*
D21*
X368800Y177200D03*
D22*
X368800Y152000D03*
D10*
X369600Y269200D03*
X369600Y259600D03*
D11*
X369600Y248800D03*
D10*
X369600Y240400D03*
X369600Y221200D03*
D16*
X369600Y180000D03*
D23*
X369600Y149200D03*
D11*
X370400Y269600D03*
D10*
X370400Y259600D03*
D14*
X370400Y248400D03*
D10*
X370400Y240400D03*
X370400Y221200D03*
D23*
X370400Y182000D03*
D13*
X370400Y147200D03*
D10*
X371200Y270000D03*
D11*
X371200Y259200D03*
D13*
X371200Y244000D03*
D24*
X371200Y224400D03*
D13*
X371200Y183200D03*
D24*
X371200Y146000D03*
D10*
X372000Y270000D03*
X372000Y258800D03*
D15*
X372000Y243200D03*
D24*
X372000Y224400D03*
X372000Y185200D03*
D15*
X372000Y144000D03*
X372800Y186400D03*
D25*
X372800Y142800D03*
D15*
X373600Y187200D03*
D25*
X373600Y141200D03*
D15*
X374400Y188800D03*
D25*
X374400Y140400D03*
X375200Y190000D03*
D12*
X375200Y139200D03*
D25*
X376000Y190800D03*
D12*
X376000Y138400D03*
D25*
X376800Y191600D03*
D12*
X376800Y137600D03*
X377600Y192800D03*
D26*
X377600Y136400D03*
D12*
X378400Y193600D03*
D26*
X378400Y135600D03*
D12*
X379200Y194400D03*
D26*
X379200Y134800D03*
X380000Y194800D03*
X380000Y134000D03*
X380800Y195600D03*
X380800Y133200D03*
X381600Y196400D03*
D27*
X381600Y132800D03*
D12*
X382400Y196800D03*
D26*
X382400Y132400D03*
X383200Y197200D03*
D14*
X383200Y183600D03*
X383200Y179600D03*
D10*
X383200Y176400D03*
D11*
X383200Y172800D03*
D14*
X383200Y169200D03*
D11*
X383200Y164000D03*
X383200Y160800D03*
D10*
X383200Y157200D03*
D28*
X383200Y154400D03*
X383200Y152800D03*
D10*
X383200Y150000D03*
D28*
X383200Y148000D03*
D10*
X383200Y146000D03*
D14*
X383200Y142800D03*
D26*
X383200Y131600D03*
X384000Y198000D03*
D11*
X384000Y184000D03*
D14*
X384000Y179600D03*
D10*
X384000Y176400D03*
D11*
X384000Y172800D03*
D14*
X384000Y169200D03*
D11*
X384000Y164000D03*
X384000Y160800D03*
D10*
X384000Y156400D03*
D28*
X384000Y154400D03*
X384000Y152800D03*
D10*
X384000Y150000D03*
D26*
X384000Y146000D03*
D28*
X384000Y141600D03*
D26*
X384000Y130800D03*
X384800Y198800D03*
D14*
X384800Y169200D03*
D28*
X384800Y161600D03*
X384800Y144000D03*
X384800Y141600D03*
D27*
X384800Y130400D03*
D26*
X385600Y198800D03*
X385600Y130000D03*
X386400Y199600D03*
D27*
X386400Y129600D03*
X387200Y200000D03*
X387200Y128800D03*
D26*
X388000Y200400D03*
D28*
X388000Y184000D03*
X388000Y181600D03*
D10*
X388000Y173200D03*
D28*
X388000Y164000D03*
X388000Y153600D03*
X388000Y148000D03*
X388000Y145600D03*
D27*
X388000Y128800D03*
X388800Y200800D03*
D10*
X388800Y184400D03*
D14*
X388800Y181200D03*
D28*
X388800Y178400D03*
X388800Y176800D03*
X388800Y175200D03*
D11*
X388800Y172800D03*
D28*
X388800Y170400D03*
D24*
X388800Y165200D03*
D28*
X388800Y160000D03*
X388800Y158400D03*
X388800Y156800D03*
X388800Y155200D03*
D27*
X388800Y151200D03*
D10*
X388800Y147600D03*
X388800Y145200D03*
D28*
X388800Y141600D03*
D27*
X388800Y128000D03*
D26*
X389600Y201200D03*
D11*
X389600Y184000D03*
D27*
X389600Y180000D03*
D11*
X389600Y176000D03*
X389600Y172800D03*
D28*
X389600Y170400D03*
D12*
X389600Y166400D03*
D11*
X389600Y160800D03*
X389600Y157600D03*
D28*
X389600Y155200D03*
D27*
X389600Y152000D03*
D10*
X389600Y147600D03*
X389600Y145200D03*
D11*
X389600Y142400D03*
D27*
X389600Y128000D03*
X390400Y201600D03*
D10*
X390400Y178800D03*
X390400Y147600D03*
X390400Y142000D03*
D27*
X390400Y127200D03*
D14*
X391200Y359600D03*
D26*
X391200Y202000D03*
D27*
X391200Y127200D03*
D10*
X392000Y360400D03*
D27*
X392000Y202400D03*
X392000Y126400D03*
D10*
X392800Y361200D03*
D26*
X392800Y202800D03*
D27*
X392800Y126400D03*
D10*
X393600Y361200D03*
D27*
X393600Y203200D03*
D10*
X393600Y151600D03*
X393600Y146800D03*
X393600Y142800D03*
D27*
X393600Y126400D03*
D10*
X394400Y361200D03*
D27*
X394400Y203200D03*
D29*
X394400Y169600D03*
D11*
X394400Y151200D03*
D14*
X394400Y146800D03*
D11*
X394400Y142400D03*
D27*
X394400Y125600D03*
D26*
X395200Y391600D03*
D10*
X395200Y380400D03*
D12*
X395200Y371200D03*
D10*
X395200Y361200D03*
X395200Y355600D03*
D27*
X395200Y351200D03*
X395200Y340800D03*
D12*
X395200Y323200D03*
D28*
X395200Y313600D03*
D14*
X395200Y308400D03*
D15*
X395200Y292800D03*
D10*
X395200Y285200D03*
D27*
X395200Y280800D03*
D10*
X395200Y271600D03*
X395200Y262800D03*
D12*
X395200Y253600D03*
D14*
X395200Y243600D03*
D10*
X395200Y234800D03*
X395200Y227600D03*
X395200Y221200D03*
D27*
X395200Y203200D03*
D25*
X395200Y181200D03*
X395200Y158800D03*
D11*
X395200Y151200D03*
D14*
X395200Y146800D03*
D11*
X395200Y142400D03*
D27*
X395200Y125600D03*
D15*
X396000Y392000D03*
D10*
X396000Y380400D03*
D11*
X396000Y373600D03*
D14*
X396000Y369200D03*
D10*
X396000Y361200D03*
X396000Y355600D03*
D11*
X396000Y352800D03*
D14*
X396000Y349200D03*
D15*
X396000Y340800D03*
D11*
X396000Y325600D03*
D14*
X396000Y321200D03*
D28*
X396000Y313600D03*
D25*
X396000Y308400D03*
D15*
X396000Y292800D03*
D10*
X396000Y285200D03*
D11*
X396000Y282400D03*
D14*
X396000Y278800D03*
D10*
X396000Y271600D03*
X396000Y262800D03*
D11*
X396000Y256000D03*
D14*
X396000Y251600D03*
D27*
X396000Y243200D03*
D10*
X396000Y234800D03*
X396000Y227600D03*
X396000Y221200D03*
D27*
X396000Y204000D03*
D25*
X396000Y181200D03*
D15*
X396000Y158400D03*
D11*
X396000Y151200D03*
D27*
X396000Y147200D03*
D11*
X396000Y142400D03*
D27*
X396000Y125600D03*
D11*
X396800Y395200D03*
X396800Y388800D03*
D10*
X396800Y380400D03*
D11*
X396800Y368000D03*
D10*
X396800Y361200D03*
D14*
X396800Y354800D03*
D10*
X396800Y348400D03*
D28*
X396800Y344000D03*
D11*
X396800Y338400D03*
X396800Y320000D03*
D14*
X396800Y312400D03*
D11*
X396800Y306400D03*
D10*
X396800Y290000D03*
D14*
X396800Y284400D03*
D10*
X396800Y278000D03*
X396800Y271600D03*
X396800Y262800D03*
D11*
X396800Y250400D03*
X396800Y241600D03*
D10*
X396800Y234800D03*
X396800Y227600D03*
X396800Y221200D03*
D27*
X396800Y204000D03*
D10*
X396800Y183600D03*
D30*
X396800Y170000D03*
D10*
X396800Y155600D03*
D11*
X396800Y151200D03*
D27*
X396800Y147200D03*
D11*
X396800Y142400D03*
D14*
X396800Y125200D03*
D10*
X397600Y395600D03*
D11*
X397600Y388000D03*
D10*
X397600Y380400D03*
D11*
X397600Y367200D03*
D10*
X397600Y361200D03*
D11*
X397600Y355200D03*
D10*
X397600Y348400D03*
D11*
X397600Y337600D03*
X397600Y319200D03*
X397600Y312800D03*
X397600Y305600D03*
D10*
X397600Y290800D03*
D11*
X397600Y284800D03*
D10*
X397600Y278000D03*
X397600Y271600D03*
X397600Y262800D03*
D11*
X397600Y249600D03*
D10*
X397600Y241200D03*
X397600Y234800D03*
X397600Y227600D03*
X397600Y221200D03*
D27*
X397600Y204000D03*
D10*
X397600Y183600D03*
D30*
X397600Y170000D03*
D10*
X397600Y155600D03*
D11*
X397600Y151200D03*
D26*
X397600Y146800D03*
D11*
X397600Y142400D03*
D27*
X397600Y124800D03*
D10*
X398400Y396400D03*
X398400Y387600D03*
X398400Y380400D03*
X398400Y366800D03*
X398400Y361200D03*
X398400Y355600D03*
X398400Y348400D03*
X398400Y337200D03*
X398400Y318800D03*
X398400Y313200D03*
X398400Y305200D03*
X398400Y290800D03*
X398400Y285200D03*
X398400Y278000D03*
X398400Y271600D03*
X398400Y262800D03*
X398400Y249200D03*
X398400Y241200D03*
X398400Y234800D03*
X398400Y227600D03*
X398400Y221200D03*
D27*
X398400Y204000D03*
D11*
X398400Y184000D03*
D31*
X398400Y169600D03*
D10*
X398400Y155600D03*
D26*
X398400Y150000D03*
D11*
X398400Y145600D03*
X398400Y142400D03*
D27*
X398400Y124800D03*
D10*
X399200Y396400D03*
X399200Y387600D03*
X399200Y380400D03*
X399200Y366800D03*
X399200Y361200D03*
X399200Y355600D03*
X399200Y348400D03*
X399200Y337200D03*
X399200Y318800D03*
X399200Y313200D03*
X399200Y305200D03*
X399200Y291600D03*
X399200Y285200D03*
X399200Y278000D03*
X399200Y271600D03*
X399200Y262800D03*
X399200Y249200D03*
X399200Y241200D03*
X399200Y234800D03*
X399200Y227600D03*
X399200Y221200D03*
D27*
X399200Y204800D03*
D19*
X399200Y170000D03*
D26*
X399200Y150000D03*
X399200Y143600D03*
D27*
X399200Y124800D03*
D10*
X400000Y396400D03*
X400000Y387600D03*
X400000Y380400D03*
X400000Y366800D03*
X400000Y361200D03*
X400000Y355600D03*
X400000Y349200D03*
X400000Y337200D03*
X400000Y318800D03*
X400000Y313200D03*
X400000Y305200D03*
D11*
X400000Y292000D03*
D10*
X400000Y285200D03*
X400000Y278800D03*
X400000Y271600D03*
X400000Y262800D03*
X400000Y249200D03*
X400000Y241200D03*
X400000Y234800D03*
X400000Y227600D03*
X400000Y221200D03*
D27*
X400000Y204800D03*
D19*
X400000Y170000D03*
D27*
X400000Y150400D03*
D26*
X400000Y143600D03*
D14*
X400000Y124400D03*
D10*
X400800Y396400D03*
X400800Y387600D03*
X400800Y380400D03*
D23*
X400800Y370800D03*
D10*
X400800Y361200D03*
D15*
X400800Y352800D03*
D10*
X400800Y337200D03*
D23*
X400800Y322800D03*
D10*
X400800Y313200D03*
X400800Y305200D03*
X400800Y292400D03*
D15*
X400800Y282400D03*
D10*
X400800Y271600D03*
X400800Y262800D03*
D23*
X400800Y253200D03*
D10*
X400800Y241200D03*
X400800Y234800D03*
X400800Y227600D03*
X400800Y221200D03*
D27*
X400800Y204800D03*
D19*
X400800Y170000D03*
D32*
X400800Y146800D03*
D14*
X400800Y124400D03*
D10*
X401600Y396400D03*
X401600Y387600D03*
X401600Y380400D03*
D11*
X401600Y374400D03*
X401600Y367200D03*
D10*
X401600Y361200D03*
D11*
X401600Y355200D03*
D10*
X401600Y337200D03*
D11*
X401600Y326400D03*
X401600Y319200D03*
D10*
X401600Y313200D03*
X401600Y305200D03*
X401600Y293200D03*
D11*
X401600Y284800D03*
D10*
X401600Y271600D03*
X401600Y262800D03*
D11*
X401600Y256800D03*
X401600Y249600D03*
D10*
X401600Y241200D03*
X401600Y234800D03*
X401600Y227600D03*
X401600Y221200D03*
D27*
X401600Y204800D03*
D19*
X401600Y170000D03*
D32*
X401600Y146800D03*
D14*
X401600Y124400D03*
D10*
X402400Y396400D03*
X402400Y387600D03*
X402400Y380400D03*
X402400Y374800D03*
X402400Y366800D03*
X402400Y361200D03*
X402400Y355600D03*
X402400Y337200D03*
X402400Y326800D03*
X402400Y318800D03*
X402400Y313200D03*
X402400Y305200D03*
D11*
X402400Y293600D03*
D10*
X402400Y285200D03*
X402400Y271600D03*
X402400Y262800D03*
X402400Y257200D03*
X402400Y249200D03*
X402400Y241200D03*
X402400Y234800D03*
X402400Y227600D03*
X402400Y221200D03*
D27*
X402400Y204800D03*
D14*
X402400Y183600D03*
D33*
X402400Y170000D03*
D11*
X402400Y156000D03*
D23*
X402400Y146800D03*
D27*
X402400Y124000D03*
D10*
X403200Y396400D03*
X403200Y387600D03*
X403200Y380400D03*
X403200Y374800D03*
X403200Y366800D03*
X403200Y361200D03*
X403200Y355600D03*
X403200Y337200D03*
X403200Y326800D03*
X403200Y318800D03*
X403200Y313200D03*
X403200Y305200D03*
X403200Y294000D03*
X403200Y285200D03*
X403200Y271600D03*
X403200Y262800D03*
X403200Y257200D03*
X403200Y249200D03*
X403200Y241200D03*
X403200Y234800D03*
X403200Y227600D03*
X403200Y221200D03*
D27*
X403200Y204800D03*
D10*
X403200Y184400D03*
D33*
X403200Y170000D03*
D10*
X403200Y155600D03*
D27*
X403200Y150400D03*
D26*
X403200Y143600D03*
D27*
X403200Y124000D03*
D10*
X404000Y395600D03*
X404000Y388400D03*
D11*
X404000Y380800D03*
D10*
X404000Y374800D03*
X404000Y367600D03*
X404000Y361200D03*
D11*
X404000Y355200D03*
X404000Y337600D03*
D10*
X404000Y326800D03*
X404000Y319600D03*
D11*
X404000Y312800D03*
X404000Y305600D03*
D10*
X404000Y294800D03*
D11*
X404000Y284800D03*
D10*
X404000Y271600D03*
D11*
X404000Y263200D03*
D10*
X404000Y257200D03*
X404000Y250000D03*
X404000Y241200D03*
X404000Y234800D03*
D11*
X404000Y228000D03*
D10*
X404000Y221200D03*
D27*
X404000Y204800D03*
D10*
X404000Y184400D03*
D34*
X404000Y169600D03*
D10*
X404000Y155600D03*
D14*
X404000Y150800D03*
D27*
X404000Y143200D03*
X404000Y124000D03*
D11*
X404800Y395200D03*
X404800Y388800D03*
D14*
X404800Y381200D03*
D10*
X404800Y374000D03*
D11*
X404800Y368000D03*
D10*
X404800Y361200D03*
X404800Y354800D03*
D28*
X404800Y348800D03*
X404800Y344000D03*
D11*
X404800Y338400D03*
D10*
X404800Y326000D03*
D11*
X404800Y320000D03*
D14*
X404800Y312400D03*
D11*
X404800Y306400D03*
D10*
X404800Y294800D03*
X404800Y284400D03*
D28*
X404800Y278400D03*
D11*
X404800Y272000D03*
D14*
X404800Y263600D03*
D10*
X404800Y256400D03*
D11*
X404800Y250400D03*
D10*
X404800Y241200D03*
D11*
X404800Y234400D03*
D14*
X404800Y228400D03*
D10*
X404800Y221200D03*
D27*
X404800Y204800D03*
D10*
X404800Y183600D03*
D35*
X404800Y170000D03*
D10*
X404800Y156400D03*
D14*
X404800Y150800D03*
D27*
X404800Y143200D03*
X404800Y124000D03*
D15*
X405600Y392000D03*
D14*
X405600Y383600D03*
D28*
X405600Y380000D03*
D25*
X405600Y370800D03*
D10*
X405600Y361200D03*
D15*
X405600Y352000D03*
D25*
X405600Y351200D03*
X405600Y322800D03*
D10*
X405600Y313200D03*
D12*
X405600Y308800D03*
D15*
X405600Y292800D03*
X405600Y281600D03*
D25*
X405600Y272400D03*
D14*
X405600Y266000D03*
D28*
X405600Y262400D03*
D25*
X405600Y253200D03*
X405600Y242000D03*
D12*
X405600Y232000D03*
D28*
X405600Y227200D03*
D10*
X405600Y221200D03*
D14*
X405600Y205200D03*
D29*
X405600Y169600D03*
D14*
X405600Y150800D03*
D27*
X405600Y143200D03*
X405600Y124000D03*
X406400Y392000D03*
D11*
X406400Y384000D03*
D28*
X406400Y380000D03*
D27*
X406400Y371200D03*
D10*
X406400Y361200D03*
D27*
X406400Y352000D03*
D14*
X406400Y341200D03*
D27*
X406400Y323200D03*
D10*
X406400Y313200D03*
D14*
X406400Y308400D03*
D27*
X406400Y281600D03*
D11*
X406400Y272000D03*
X406400Y266400D03*
D28*
X406400Y262400D03*
D27*
X406400Y253600D03*
D11*
X406400Y241600D03*
D14*
X406400Y232400D03*
D28*
X406400Y227200D03*
D10*
X406400Y221200D03*
D14*
X406400Y205200D03*
D36*
X406400Y170000D03*
D14*
X406400Y150800D03*
D27*
X406400Y143200D03*
X406400Y124000D03*
D10*
X407200Y313200D03*
X407200Y271600D03*
X407200Y241200D03*
X407200Y221200D03*
D14*
X407200Y205200D03*
D37*
X407200Y170000D03*
D14*
X407200Y150800D03*
D27*
X407200Y143200D03*
X407200Y124000D03*
D10*
X408000Y313200D03*
X408000Y271600D03*
X408000Y241200D03*
X408000Y221200D03*
D14*
X408000Y205200D03*
D27*
X408000Y181600D03*
X408000Y157600D03*
D14*
X408000Y150800D03*
D27*
X408000Y143200D03*
X408000Y124000D03*
D10*
X408800Y313200D03*
X408800Y271600D03*
X408800Y241200D03*
X408800Y221200D03*
D27*
X408800Y204800D03*
D11*
X408800Y182400D03*
D10*
X408800Y179600D03*
D28*
X408800Y160000D03*
D11*
X408800Y156800D03*
D14*
X408800Y150800D03*
D27*
X408800Y143200D03*
X408800Y124000D03*
D10*
X409600Y361200D03*
X409600Y313200D03*
X409600Y272400D03*
X409600Y221200D03*
D27*
X409600Y204800D03*
D28*
X409600Y179200D03*
X409600Y160000D03*
D14*
X409600Y150800D03*
D27*
X409600Y143200D03*
X409600Y124000D03*
D10*
X410400Y361200D03*
X410400Y313200D03*
X410400Y272400D03*
X410400Y221200D03*
D27*
X410400Y204800D03*
D28*
X410400Y178400D03*
X410400Y160800D03*
D32*
X410400Y146800D03*
D27*
X410400Y124000D03*
D10*
X411200Y313200D03*
D26*
X411200Y274000D03*
D27*
X411200Y204800D03*
D28*
X411200Y161600D03*
D32*
X411200Y146800D03*
D27*
X411200Y124000D03*
X412000Y204800D03*
D13*
X412000Y169600D03*
D32*
X412000Y146800D03*
D14*
X412000Y124400D03*
D27*
X412800Y204800D03*
X412800Y143200D03*
D14*
X412800Y124400D03*
D27*
X413600Y204800D03*
X413600Y143200D03*
D14*
X413600Y124400D03*
D27*
X414400Y204800D03*
X414400Y143200D03*
X414400Y124800D03*
X415200Y204000D03*
D16*
X415200Y146400D03*
D27*
X415200Y124800D03*
X416000Y204000D03*
D32*
X416000Y146800D03*
D27*
X416000Y124800D03*
X416800Y204000D03*
D16*
X416800Y146400D03*
D14*
X416800Y125200D03*
D27*
X417600Y204000D03*
X417600Y143200D03*
X417600Y125600D03*
X418400Y203200D03*
X418400Y143200D03*
X418400Y125600D03*
X419200Y203200D03*
X419200Y143200D03*
X419200Y125600D03*
X420000Y203200D03*
D25*
X420000Y144400D03*
D27*
X420000Y126400D03*
D26*
X420800Y202800D03*
D23*
X420800Y146000D03*
D27*
X420800Y126400D03*
X421600Y202400D03*
D22*
X421600Y147200D03*
D27*
X421600Y126400D03*
D26*
X422400Y202000D03*
D11*
X422400Y155200D03*
D15*
X422400Y147200D03*
D27*
X422400Y127200D03*
X423200Y201600D03*
X423200Y157600D03*
D12*
X423200Y148800D03*
D27*
X423200Y127200D03*
D26*
X424000Y201200D03*
D15*
X424000Y159200D03*
D26*
X424000Y151600D03*
D27*
X424000Y128000D03*
X424800Y200800D03*
D14*
X424800Y163600D03*
D13*
X424800Y156000D03*
D27*
X424800Y128000D03*
D26*
X425600Y200400D03*
D27*
X425600Y166400D03*
D12*
X425600Y157600D03*
D27*
X425600Y128800D03*
X426400Y200000D03*
D15*
X426400Y168000D03*
D27*
X426400Y160000D03*
X426400Y128800D03*
D26*
X427200Y199600D03*
D14*
X427200Y173200D03*
D23*
X427200Y165200D03*
D27*
X427200Y129600D03*
D26*
X428000Y198800D03*
X428000Y175600D03*
D25*
X428000Y166800D03*
D26*
X428000Y130000D03*
X428800Y198800D03*
D25*
X428800Y177200D03*
D26*
X428800Y168400D03*
D27*
X428800Y130400D03*
D26*
X429600Y198000D03*
D38*
X429600Y176400D03*
D27*
X429600Y131200D03*
D26*
X430400Y197200D03*
D14*
X430400Y183600D03*
D15*
X430400Y175200D03*
D26*
X430400Y131600D03*
D12*
X431200Y196800D03*
D11*
X431200Y184000D03*
D26*
X431200Y177200D03*
X431200Y132400D03*
X432000Y196400D03*
D25*
X432000Y181200D03*
D27*
X432000Y132800D03*
D26*
X432800Y195600D03*
D27*
X432800Y182400D03*
D26*
X432800Y133200D03*
X433600Y582800D03*
D27*
X433600Y571200D03*
D10*
X433600Y562800D03*
D11*
X433600Y557600D03*
D10*
X433600Y550000D03*
D12*
X433600Y542400D03*
D10*
X433600Y532400D03*
D11*
X433600Y524800D03*
D10*
X433600Y517200D03*
D12*
X433600Y502400D03*
D28*
X433600Y492800D03*
D14*
X433600Y487600D03*
D26*
X433600Y471600D03*
X433600Y459600D03*
D27*
X433600Y448000D03*
D10*
X433600Y439600D03*
X433600Y433200D03*
X433600Y426000D03*
D26*
X433600Y414000D03*
X433600Y398000D03*
X433600Y386000D03*
D14*
X433600Y376400D03*
D10*
X433600Y367600D03*
X433600Y360400D03*
D12*
X433600Y351200D03*
D10*
X433600Y342000D03*
X433600Y335600D03*
X433600Y328400D03*
X433600Y321200D03*
X433600Y315600D03*
D27*
X433600Y311200D03*
D10*
X433600Y302800D03*
X433600Y295600D03*
D26*
X433600Y285200D03*
D10*
X433600Y276400D03*
D27*
X433600Y268000D03*
D10*
X433600Y259600D03*
D27*
X433600Y255200D03*
D14*
X433600Y246800D03*
D26*
X433600Y235600D03*
D13*
X433600Y224800D03*
D26*
X433600Y194800D03*
X433600Y134000D03*
D15*
X434400Y583200D03*
X434400Y571200D03*
D10*
X434400Y562800D03*
X434400Y557200D03*
X434400Y550800D03*
D11*
X434400Y544800D03*
D14*
X434400Y540400D03*
D10*
X434400Y532400D03*
D11*
X434400Y524800D03*
D10*
X434400Y517200D03*
D11*
X434400Y504800D03*
D14*
X434400Y500400D03*
D28*
X434400Y492800D03*
D25*
X434400Y487600D03*
D14*
X434400Y473200D03*
D11*
X434400Y469600D03*
D15*
X434400Y460000D03*
X434400Y448000D03*
D10*
X434400Y439600D03*
X434400Y433200D03*
X434400Y426000D03*
D24*
X434400Y414000D03*
D14*
X434400Y399600D03*
D11*
X434400Y396000D03*
D15*
X434400Y386400D03*
D27*
X434400Y376000D03*
D10*
X434400Y367600D03*
X434400Y360400D03*
D11*
X434400Y353600D03*
D14*
X434400Y349200D03*
D10*
X434400Y342000D03*
X434400Y335600D03*
X434400Y328400D03*
X434400Y321200D03*
X434400Y315600D03*
D11*
X434400Y312800D03*
D14*
X434400Y309200D03*
D10*
X434400Y302800D03*
X434400Y295600D03*
D15*
X434400Y285600D03*
D10*
X434400Y276400D03*
D15*
X434400Y268000D03*
D10*
X434400Y259600D03*
D11*
X434400Y256800D03*
D14*
X434400Y253200D03*
D27*
X434400Y246400D03*
D14*
X434400Y237200D03*
D11*
X434400Y233600D03*
D13*
X434400Y224800D03*
D12*
X434400Y194400D03*
D26*
X434400Y134800D03*
D11*
X435200Y586400D03*
X435200Y580000D03*
D28*
X435200Y574400D03*
D11*
X435200Y568800D03*
D10*
X435200Y562800D03*
D11*
X435200Y556800D03*
D10*
X435200Y550800D03*
D11*
X435200Y539200D03*
D10*
X435200Y532400D03*
D11*
X435200Y524800D03*
D10*
X435200Y517200D03*
D11*
X435200Y499200D03*
D14*
X435200Y491600D03*
D11*
X435200Y485600D03*
X435200Y474400D03*
X435200Y463200D03*
X435200Y456800D03*
D28*
X435200Y451200D03*
D11*
X435200Y445600D03*
D10*
X435200Y439600D03*
X435200Y433200D03*
X435200Y426000D03*
D11*
X435200Y417600D03*
X435200Y410400D03*
X435200Y400800D03*
X435200Y389600D03*
X435200Y383200D03*
X435200Y374400D03*
D10*
X435200Y367600D03*
X435200Y360400D03*
D11*
X435200Y348000D03*
D10*
X435200Y342000D03*
X435200Y335600D03*
X435200Y328400D03*
X435200Y321200D03*
D14*
X435200Y314800D03*
D10*
X435200Y308400D03*
X435200Y302800D03*
X435200Y295600D03*
D11*
X435200Y288800D03*
X435200Y282400D03*
D10*
X435200Y276400D03*
D28*
X435200Y271200D03*
D11*
X435200Y265600D03*
D14*
X435200Y258800D03*
D10*
X435200Y252400D03*
D11*
X435200Y244800D03*
X435200Y238400D03*
D10*
X435200Y221200D03*
D12*
X435200Y193600D03*
D26*
X435200Y135600D03*
D10*
X436000Y586800D03*
D11*
X436000Y579200D03*
X436000Y568000D03*
D10*
X436000Y562800D03*
X436000Y556400D03*
X436000Y551600D03*
D11*
X436000Y538400D03*
D10*
X436000Y532400D03*
D27*
X436000Y524800D03*
D10*
X436000Y517200D03*
D11*
X436000Y498400D03*
X436000Y492000D03*
X436000Y484800D03*
D10*
X436000Y474800D03*
X436000Y463600D03*
D11*
X436000Y456000D03*
X436000Y444800D03*
D10*
X436000Y439600D03*
X436000Y433200D03*
X436000Y426000D03*
D11*
X436000Y418400D03*
D10*
X436000Y410000D03*
X436000Y401200D03*
X436000Y390000D03*
D11*
X436000Y382400D03*
D10*
X436000Y374000D03*
X436000Y367600D03*
X436000Y360400D03*
D11*
X436000Y347200D03*
D10*
X436000Y342000D03*
X436000Y335600D03*
X436000Y328400D03*
X436000Y321200D03*
D11*
X436000Y315200D03*
D10*
X436000Y308400D03*
X436000Y302800D03*
X436000Y295600D03*
X436000Y289200D03*
D11*
X436000Y281600D03*
D10*
X436000Y276400D03*
D11*
X436000Y264800D03*
X436000Y259200D03*
D10*
X436000Y252400D03*
X436000Y244400D03*
X436000Y238800D03*
X436000Y221200D03*
D12*
X436000Y192800D03*
D26*
X436000Y136400D03*
D10*
X436800Y587600D03*
X436800Y578800D03*
X436800Y567600D03*
X436800Y562800D03*
X436800Y555600D03*
X436800Y552400D03*
X436800Y538000D03*
X436800Y532400D03*
X436800Y526000D03*
X436800Y523600D03*
X436800Y517200D03*
X436800Y498000D03*
X436800Y492400D03*
X436800Y484400D03*
X436800Y474800D03*
X436800Y464400D03*
X436800Y455600D03*
X436800Y444400D03*
X436800Y439600D03*
X436800Y433200D03*
X436800Y426000D03*
X436800Y418800D03*
D11*
X436800Y409600D03*
D10*
X436800Y401200D03*
X436800Y390800D03*
X436800Y382000D03*
X436800Y374000D03*
X436800Y367600D03*
X436800Y360400D03*
X436800Y346800D03*
X436800Y342000D03*
X436800Y335600D03*
X436800Y328400D03*
X436800Y321200D03*
X436800Y315600D03*
X436800Y308400D03*
X436800Y302800D03*
X436800Y295600D03*
X436800Y290000D03*
X436800Y281200D03*
X436800Y276400D03*
X436800Y264400D03*
X436800Y259600D03*
X436800Y252400D03*
X436800Y244400D03*
X436800Y238800D03*
X436800Y221200D03*
D25*
X436800Y191600D03*
D12*
X436800Y137600D03*
D10*
X437600Y587600D03*
X437600Y578800D03*
X437600Y567600D03*
X437600Y562800D03*
D11*
X437600Y555200D03*
D10*
X437600Y552400D03*
X437600Y538000D03*
X437600Y532400D03*
X437600Y526800D03*
D11*
X437600Y523200D03*
D10*
X437600Y517200D03*
X437600Y498000D03*
X437600Y492400D03*
X437600Y484400D03*
D11*
X437600Y474400D03*
D10*
X437600Y464400D03*
X437600Y455600D03*
X437600Y444400D03*
X437600Y439600D03*
X437600Y433200D03*
X437600Y426000D03*
X437600Y418800D03*
X437600Y409200D03*
D11*
X437600Y400800D03*
D10*
X437600Y390800D03*
X437600Y382000D03*
X437600Y374000D03*
X437600Y367600D03*
X437600Y360400D03*
X437600Y346800D03*
X437600Y342000D03*
X437600Y335600D03*
X437600Y328400D03*
X437600Y321200D03*
X437600Y315600D03*
X437600Y308400D03*
X437600Y302800D03*
X437600Y295600D03*
X437600Y290000D03*
X437600Y281200D03*
X437600Y276400D03*
X437600Y264400D03*
X437600Y259600D03*
X437600Y252400D03*
X437600Y244400D03*
D11*
X437600Y238400D03*
D10*
X437600Y221200D03*
D25*
X437600Y190800D03*
D12*
X437600Y138400D03*
D10*
X438400Y587600D03*
X438400Y578800D03*
X438400Y567600D03*
X438400Y562800D03*
D14*
X438400Y554000D03*
D10*
X438400Y538000D03*
X438400Y532400D03*
X438400Y526800D03*
X438400Y522800D03*
X438400Y517200D03*
X438400Y498000D03*
X438400Y492400D03*
X438400Y484400D03*
D11*
X438400Y473600D03*
D10*
X438400Y464400D03*
X438400Y455600D03*
X438400Y444400D03*
X438400Y439600D03*
X438400Y433200D03*
X438400Y426000D03*
X438400Y419600D03*
X438400Y409200D03*
D11*
X438400Y400000D03*
D10*
X438400Y390800D03*
X438400Y382000D03*
X438400Y374000D03*
X438400Y367600D03*
X438400Y360400D03*
X438400Y346800D03*
X438400Y342000D03*
X438400Y335600D03*
X438400Y328400D03*
X438400Y321200D03*
X438400Y315600D03*
X438400Y309200D03*
X438400Y302800D03*
X438400Y295600D03*
X438400Y290000D03*
X438400Y281200D03*
X438400Y276400D03*
X438400Y264400D03*
X438400Y259600D03*
X438400Y253200D03*
X438400Y244400D03*
D11*
X438400Y237600D03*
D10*
X438400Y221200D03*
D25*
X438400Y190000D03*
D12*
X438400Y139200D03*
D10*
X439200Y587600D03*
X439200Y578800D03*
X439200Y567600D03*
X439200Y562800D03*
D14*
X439200Y554000D03*
D23*
X439200Y542000D03*
D10*
X439200Y532400D03*
X439200Y526800D03*
X439200Y522800D03*
X439200Y517200D03*
D23*
X439200Y502000D03*
D10*
X439200Y492400D03*
X439200Y484400D03*
D27*
X439200Y472000D03*
D10*
X439200Y464400D03*
X439200Y455600D03*
X439200Y444400D03*
X439200Y439600D03*
X439200Y433200D03*
X439200Y426000D03*
X439200Y419600D03*
X439200Y409200D03*
D27*
X439200Y398400D03*
D10*
X439200Y390800D03*
X439200Y382000D03*
X439200Y374000D03*
X439200Y367600D03*
X439200Y360400D03*
D23*
X439200Y350800D03*
D10*
X439200Y342000D03*
X439200Y335600D03*
X439200Y328400D03*
X439200Y321200D03*
D15*
X439200Y312800D03*
D10*
X439200Y302800D03*
X439200Y295600D03*
X439200Y290000D03*
X439200Y281200D03*
X439200Y276400D03*
X439200Y264400D03*
D15*
X439200Y256800D03*
D10*
X439200Y244400D03*
D27*
X439200Y236000D03*
D10*
X439200Y221200D03*
D15*
X439200Y188800D03*
D25*
X439200Y140400D03*
D10*
X440000Y587600D03*
X440000Y578800D03*
X440000Y567600D03*
X440000Y562800D03*
D14*
X440000Y554000D03*
D11*
X440000Y545600D03*
X440000Y538400D03*
D10*
X440000Y532400D03*
X440000Y527600D03*
D11*
X440000Y522400D03*
D10*
X440000Y517200D03*
D11*
X440000Y505600D03*
X440000Y498400D03*
D10*
X440000Y492400D03*
X440000Y484400D03*
D11*
X440000Y470400D03*
D10*
X440000Y464400D03*
X440000Y455600D03*
X440000Y444400D03*
X440000Y439600D03*
X440000Y433200D03*
X440000Y426000D03*
X440000Y419600D03*
X440000Y409200D03*
D11*
X440000Y396800D03*
D10*
X440000Y390800D03*
X440000Y382000D03*
X440000Y374000D03*
X440000Y367600D03*
X440000Y360400D03*
D11*
X440000Y354400D03*
X440000Y347200D03*
D10*
X440000Y342000D03*
X440000Y335600D03*
X440000Y328400D03*
X440000Y321200D03*
D11*
X440000Y315200D03*
D10*
X440000Y302800D03*
X440000Y295600D03*
X440000Y290000D03*
X440000Y281200D03*
X440000Y276400D03*
X440000Y264400D03*
D11*
X440000Y259200D03*
D10*
X440000Y244400D03*
D11*
X440000Y234400D03*
D10*
X440000Y221200D03*
D15*
X440000Y187200D03*
D25*
X440000Y141200D03*
D10*
X440800Y587600D03*
X440800Y578800D03*
X440800Y567600D03*
X440800Y562800D03*
D26*
X440800Y554000D03*
D10*
X440800Y546000D03*
X440800Y538000D03*
X440800Y532400D03*
X440800Y527600D03*
X440800Y522000D03*
X440800Y517200D03*
X440800Y506000D03*
X440800Y498000D03*
X440800Y492400D03*
X440800Y484400D03*
D11*
X440800Y469600D03*
D10*
X440800Y464400D03*
X440800Y455600D03*
X440800Y444400D03*
X440800Y439600D03*
X440800Y433200D03*
X440800Y426000D03*
X440800Y419600D03*
X440800Y409200D03*
D11*
X440800Y396000D03*
D10*
X440800Y390800D03*
X440800Y382000D03*
X440800Y374000D03*
X440800Y367600D03*
X440800Y360400D03*
X440800Y354800D03*
X440800Y346800D03*
X440800Y342000D03*
X440800Y335600D03*
X440800Y328400D03*
X440800Y321200D03*
X440800Y315600D03*
X440800Y302800D03*
X440800Y295600D03*
X440800Y290000D03*
X440800Y281200D03*
X440800Y276400D03*
X440800Y264400D03*
X440800Y259600D03*
X440800Y244400D03*
D11*
X440800Y233600D03*
D10*
X440800Y221200D03*
D15*
X440800Y186400D03*
D25*
X440800Y142800D03*
D10*
X441600Y587600D03*
X441600Y578800D03*
X441600Y567600D03*
X441600Y562800D03*
X441600Y555600D03*
X441600Y552400D03*
X441600Y546000D03*
X441600Y538000D03*
X441600Y532400D03*
X441600Y528400D03*
X441600Y522000D03*
X441600Y517200D03*
X441600Y506000D03*
X441600Y498000D03*
X441600Y492400D03*
X441600Y484400D03*
X441600Y469200D03*
X441600Y464400D03*
X441600Y455600D03*
X441600Y444400D03*
X441600Y439600D03*
X441600Y433200D03*
X441600Y426000D03*
X441600Y419600D03*
X441600Y409200D03*
X441600Y395600D03*
X441600Y390800D03*
X441600Y382000D03*
X441600Y374000D03*
X441600Y367600D03*
X441600Y360400D03*
X441600Y354800D03*
X441600Y346800D03*
X441600Y342000D03*
X441600Y335600D03*
X441600Y328400D03*
X441600Y321200D03*
X441600Y315600D03*
X441600Y302800D03*
X441600Y295600D03*
X441600Y290000D03*
X441600Y281200D03*
X441600Y276400D03*
X441600Y264400D03*
X441600Y259600D03*
X441600Y244400D03*
X441600Y233200D03*
D15*
X441600Y224000D03*
D24*
X441600Y185200D03*
D15*
X441600Y144000D03*
D10*
X442400Y586800D03*
X442400Y579600D03*
D11*
X442400Y568000D03*
D10*
X442400Y562800D03*
X442400Y556400D03*
X442400Y551600D03*
X442400Y546000D03*
X442400Y538800D03*
X442400Y532400D03*
X442400Y528400D03*
X442400Y521200D03*
X442400Y517200D03*
X442400Y506000D03*
X442400Y498800D03*
D11*
X442400Y492000D03*
X442400Y484800D03*
D10*
X442400Y469200D03*
X442400Y463600D03*
X442400Y456400D03*
D11*
X442400Y444800D03*
D10*
X442400Y439600D03*
X442400Y433200D03*
D11*
X442400Y426400D03*
D10*
X442400Y419600D03*
X442400Y409200D03*
X442400Y395600D03*
X442400Y390000D03*
X442400Y382800D03*
X442400Y374000D03*
X442400Y367600D03*
D11*
X442400Y360800D03*
D10*
X442400Y354800D03*
X442400Y347600D03*
X442400Y342000D03*
D11*
X442400Y335200D03*
D14*
X442400Y328400D03*
D11*
X442400Y321600D03*
X442400Y315200D03*
D10*
X442400Y302800D03*
D11*
X442400Y296000D03*
D10*
X442400Y289200D03*
X442400Y282000D03*
X442400Y276400D03*
D11*
X442400Y264800D03*
X442400Y259200D03*
D10*
X442400Y244400D03*
X442400Y233200D03*
D11*
X442400Y221600D03*
D13*
X442400Y183200D03*
D24*
X442400Y146000D03*
D11*
X443200Y586400D03*
X443200Y580000D03*
D28*
X443200Y574400D03*
D11*
X443200Y568800D03*
D10*
X443200Y562800D03*
X443200Y556400D03*
D11*
X443200Y551200D03*
D10*
X443200Y545200D03*
D11*
X443200Y539200D03*
D10*
X443200Y532400D03*
X443200Y529200D03*
X443200Y521200D03*
X443200Y517200D03*
X443200Y505200D03*
D11*
X443200Y499200D03*
D14*
X443200Y491600D03*
D11*
X443200Y485600D03*
D10*
X443200Y469200D03*
D11*
X443200Y463200D03*
X443200Y456800D03*
D28*
X443200Y451200D03*
D11*
X443200Y445600D03*
D10*
X443200Y439600D03*
D11*
X443200Y432800D03*
D14*
X443200Y426800D03*
D10*
X443200Y419600D03*
X443200Y409200D03*
X443200Y395600D03*
D11*
X443200Y389600D03*
X443200Y383200D03*
D10*
X443200Y374000D03*
D11*
X443200Y367200D03*
D14*
X443200Y361200D03*
D10*
X443200Y354000D03*
D11*
X443200Y348000D03*
D10*
X443200Y342000D03*
X443200Y334800D03*
D26*
X443200Y328400D03*
D14*
X443200Y322000D03*
D10*
X443200Y314800D03*
D28*
X443200Y308800D03*
D11*
X443200Y302400D03*
D14*
X443200Y296400D03*
D11*
X443200Y288800D03*
X443200Y282400D03*
D10*
X443200Y276400D03*
D28*
X443200Y271200D03*
D11*
X443200Y265600D03*
D10*
X443200Y258800D03*
D28*
X443200Y252800D03*
D10*
X443200Y244400D03*
X443200Y233200D03*
X443200Y221200D03*
D23*
X443200Y182000D03*
D13*
X443200Y147200D03*
D15*
X444000Y583200D03*
D25*
X444000Y571600D03*
D10*
X444000Y562800D03*
X444000Y557200D03*
X444000Y550800D03*
D25*
X444000Y542000D03*
D10*
X444000Y532400D03*
X444000Y529200D03*
D11*
X444000Y520800D03*
D10*
X444000Y517200D03*
D25*
X444000Y502000D03*
D10*
X444000Y492400D03*
D12*
X444000Y488000D03*
X444000Y472000D03*
D15*
X444000Y460000D03*
D25*
X444000Y448400D03*
D10*
X444000Y439600D03*
D12*
X444000Y430400D03*
D28*
X444000Y425600D03*
D10*
X444000Y419600D03*
X444000Y409200D03*
D12*
X444000Y398400D03*
D15*
X444000Y386400D03*
D25*
X444000Y374800D03*
D12*
X444000Y364800D03*
D28*
X444000Y360000D03*
D25*
X444000Y350800D03*
D10*
X444000Y342000D03*
D12*
X444000Y332800D03*
X444000Y325600D03*
D28*
X444000Y320800D03*
D15*
X444000Y312000D03*
D12*
X444000Y300000D03*
D28*
X444000Y295200D03*
D15*
X444000Y285600D03*
D10*
X444000Y276400D03*
D25*
X444000Y268400D03*
D15*
X444000Y256000D03*
D25*
X444000Y245200D03*
D12*
X444000Y236000D03*
D10*
X444000Y221200D03*
D16*
X444000Y180000D03*
D23*
X444000Y149200D03*
D27*
X444800Y583200D03*
D14*
X444800Y571600D03*
D10*
X444800Y562800D03*
X444800Y558000D03*
X444800Y550000D03*
D27*
X444800Y542400D03*
D10*
X444800Y532400D03*
X444800Y529200D03*
X444800Y520400D03*
X444800Y517200D03*
D27*
X444800Y502400D03*
D10*
X444800Y492400D03*
D14*
X444800Y487600D03*
D27*
X444800Y472000D03*
X444800Y460000D03*
D14*
X444800Y448400D03*
D10*
X444800Y439600D03*
D14*
X444800Y430800D03*
D28*
X444800Y425600D03*
D10*
X444800Y419600D03*
X444800Y409200D03*
D27*
X444800Y398400D03*
X444800Y386400D03*
D11*
X444800Y374400D03*
D14*
X444800Y365200D03*
D28*
X444800Y360000D03*
D27*
X444800Y351200D03*
D10*
X444800Y342000D03*
D11*
X444800Y332800D03*
X444800Y325600D03*
D28*
X444800Y320800D03*
D27*
X444800Y312000D03*
D14*
X444800Y300400D03*
D28*
X444800Y295200D03*
D27*
X444800Y285600D03*
D10*
X444800Y276400D03*
D14*
X444800Y268400D03*
D27*
X444800Y256000D03*
D11*
X444800Y244800D03*
D27*
X444800Y236000D03*
D10*
X444800Y221200D03*
D21*
X444800Y177200D03*
D22*
X444800Y152000D03*
D10*
X445600Y532400D03*
X445600Y530000D03*
X445600Y520400D03*
X445600Y517200D03*
X445600Y492400D03*
X445600Y419600D03*
X445600Y409200D03*
X445600Y374000D03*
X445600Y244400D03*
X445600Y221200D03*
D20*
X445600Y164800D03*
D10*
X446400Y532400D03*
X446400Y530000D03*
X446400Y519600D03*
X446400Y517200D03*
X446400Y492400D03*
X446400Y419600D03*
X446400Y409200D03*
X446400Y374000D03*
X446400Y244400D03*
X446400Y221200D03*
D19*
X446400Y164400D03*
D10*
X447200Y542000D03*
D14*
X447200Y531600D03*
D10*
X447200Y519600D03*
X447200Y517200D03*
X447200Y492400D03*
X447200Y419600D03*
X447200Y409200D03*
X447200Y374000D03*
X447200Y244400D03*
X447200Y221200D03*
D18*
X447200Y164400D03*
D11*
X448000Y562400D03*
D10*
X448000Y542800D03*
D14*
X448000Y531600D03*
D27*
X448000Y518400D03*
D10*
X448000Y492400D03*
D11*
X448000Y439200D03*
D10*
X448000Y419600D03*
X448000Y409200D03*
D11*
X448000Y341600D03*
X448000Y276000D03*
D24*
X448000Y224400D03*
D17*
X448000Y164800D03*
D11*
X448800Y562400D03*
D10*
X448800Y543600D03*
D11*
X448800Y532000D03*
D14*
X448800Y518000D03*
D10*
X448800Y492400D03*
D11*
X448800Y439200D03*
D10*
X448800Y419600D03*
X448800Y409200D03*
D11*
X448800Y341600D03*
X448800Y276000D03*
D24*
X448800Y224400D03*
D16*
X448800Y164800D03*
D10*
X449600Y543600D03*
X449600Y492400D03*
X450400Y544400D03*
D28*
X451200Y414400D03*
D11*
X452000Y415200D03*
X452800Y416000D03*
X453600Y416800D03*
D39*
X354400Y562000D03*
X355200Y562000D03*
X356000Y562000D03*
X356800Y562000D03*
X357600Y562000D03*
X358400Y562000D03*
X359200Y562000D03*
X360000Y562000D03*
D12*
X360000Y527200D03*
D10*
X360000Y518000D03*
X360000Y509200D03*
D12*
X360000Y500000D03*
X360000Y486400D03*
D10*
X360000Y472400D03*
D26*
X360000Y462000D03*
D11*
X360000Y452000D03*
D10*
X360000Y442000D03*
D39*
X360800Y562000D03*
D11*
X360800Y529600D03*
D14*
X360800Y525200D03*
D10*
X360800Y518000D03*
X360800Y509200D03*
D11*
X360800Y502400D03*
D14*
X360800Y498000D03*
D24*
X360800Y486800D03*
D10*
X360800Y472400D03*
D15*
X360800Y462400D03*
D14*
X360800Y451600D03*
D10*
X360800Y442000D03*
D39*
X361600Y562000D03*
D11*
X361600Y524000D03*
D10*
X361600Y518000D03*
X361600Y509200D03*
D11*
X361600Y496800D03*
X361600Y489600D03*
D10*
X361600Y482800D03*
X361600Y472400D03*
D11*
X361600Y465600D03*
X361600Y459200D03*
D14*
X361600Y451600D03*
D10*
X361600Y442000D03*
D39*
X362400Y562000D03*
D11*
X362400Y523200D03*
D10*
X362400Y518000D03*
X362400Y509200D03*
D11*
X362400Y496000D03*
X362400Y490400D03*
D10*
X362400Y466000D03*
D11*
X362400Y458400D03*
D27*
X362400Y451200D03*
D10*
X362400Y442000D03*
D39*
X363200Y562000D03*
D10*
X363200Y522800D03*
X363200Y518000D03*
X363200Y509200D03*
X363200Y495600D03*
X363200Y490800D03*
X363200Y466800D03*
X363200Y458000D03*
X363200Y452400D03*
D11*
X363200Y449600D03*
D10*
X363200Y442000D03*
D39*
X364000Y562000D03*
D10*
X364000Y522800D03*
X364000Y518000D03*
X364000Y509200D03*
X364000Y495600D03*
X364000Y490800D03*
X364000Y466800D03*
X364000Y458000D03*
X364000Y452400D03*
X364000Y449200D03*
X364000Y442000D03*
D39*
X364800Y562000D03*
D10*
X364800Y522800D03*
X364800Y518000D03*
X364800Y509200D03*
X364800Y495600D03*
X364800Y490800D03*
X364800Y466800D03*
X364800Y458000D03*
X364800Y452400D03*
D11*
X364800Y448800D03*
D10*
X364800Y442000D03*
D39*
X365600Y562000D03*
D23*
X365600Y526800D03*
D10*
X365600Y518000D03*
X365600Y509200D03*
D23*
X365600Y499600D03*
D11*
X365600Y490400D03*
D10*
X365600Y466800D03*
X365600Y458000D03*
X365600Y452400D03*
X365600Y448400D03*
X365600Y442000D03*
D39*
X366400Y562000D03*
D11*
X366400Y530400D03*
X366400Y523200D03*
D10*
X366400Y518000D03*
X366400Y509200D03*
D11*
X366400Y503200D03*
X366400Y496000D03*
X366400Y489600D03*
D10*
X366400Y466800D03*
X366400Y458000D03*
X366400Y452400D03*
D11*
X366400Y448000D03*
D10*
X366400Y442000D03*
D39*
X367200Y562000D03*
D10*
X367200Y530800D03*
X367200Y522800D03*
X367200Y518000D03*
X367200Y509200D03*
X367200Y503600D03*
X367200Y495600D03*
D27*
X367200Y488800D03*
D10*
X367200Y466800D03*
X367200Y458000D03*
X367200Y452400D03*
X367200Y447600D03*
X367200Y442000D03*
D39*
X368000Y562000D03*
D10*
X368000Y530800D03*
X368000Y522800D03*
X368000Y518000D03*
X368000Y509200D03*
X368000Y503600D03*
X368000Y495600D03*
D27*
X368000Y487200D03*
D10*
X368000Y466800D03*
X368000Y458000D03*
X368000Y452400D03*
X368000Y446800D03*
X368000Y442000D03*
D39*
X368800Y562000D03*
D10*
X368800Y530800D03*
X368800Y523600D03*
X368800Y518000D03*
D11*
X368800Y509600D03*
D10*
X368800Y503600D03*
X368800Y496400D03*
D27*
X368800Y485600D03*
D10*
X368800Y466000D03*
X368800Y458800D03*
X368800Y452400D03*
X368800Y446800D03*
X368800Y442000D03*
D39*
X369600Y562000D03*
D10*
X369600Y530000D03*
D11*
X369600Y524000D03*
D10*
X369600Y518000D03*
D14*
X369600Y510000D03*
D10*
X369600Y502800D03*
D11*
X369600Y496800D03*
X369600Y484800D03*
X369600Y465600D03*
X369600Y459200D03*
D10*
X369600Y452400D03*
X369600Y446000D03*
X369600Y442000D03*
D39*
X370400Y562000D03*
D25*
X370400Y526800D03*
D10*
X370400Y518000D03*
D14*
X370400Y512400D03*
D28*
X370400Y508800D03*
D25*
X370400Y499600D03*
D11*
X370400Y484000D03*
D15*
X370400Y462400D03*
D10*
X370400Y452400D03*
D11*
X370400Y445600D03*
D10*
X370400Y442000D03*
D39*
X371200Y562000D03*
D27*
X371200Y527200D03*
D10*
X371200Y518000D03*
D11*
X371200Y512800D03*
D28*
X371200Y508800D03*
D27*
X371200Y500000D03*
D10*
X371200Y483600D03*
D27*
X371200Y462400D03*
D10*
X371200Y452400D03*
X371200Y445200D03*
X371200Y442000D03*
D39*
X372000Y562000D03*
D10*
X372000Y483600D03*
X372000Y452400D03*
D11*
X372000Y444800D03*
D10*
X372000Y442000D03*
D39*
X372800Y562000D03*
D10*
X372800Y483600D03*
X372800Y452400D03*
X372800Y444400D03*
X372800Y442000D03*
D39*
X373600Y562000D03*
D28*
X373600Y490400D03*
D11*
X373600Y484000D03*
D10*
X373600Y452400D03*
D27*
X373600Y443200D03*
D39*
X374400Y562000D03*
D11*
X374400Y517600D03*
X374400Y489600D03*
D14*
X374400Y485200D03*
D10*
X374400Y452400D03*
D14*
X374400Y442800D03*
D39*
X375200Y562000D03*
D11*
X375200Y517600D03*
D12*
X375200Y487200D03*
D10*
X375200Y452400D03*
D11*
X375200Y442400D03*
D39*
X376000Y562000D03*
X376800Y562000D03*
X377600Y562000D03*
X378400Y562000D03*
X379200Y562000D03*
X380000Y562000D03*
X393600Y562000D03*
X394400Y562000D03*
X395200Y562000D03*
X396000Y562000D03*
D28*
X396000Y519200D03*
D39*
X396800Y562000D03*
D11*
X396800Y518400D03*
D39*
X397600Y562000D03*
D14*
X397600Y517200D03*
D39*
X398400Y562000D03*
D26*
X398400Y527600D03*
D11*
X398400Y516000D03*
D12*
X398400Y510400D03*
D39*
X399200Y562000D03*
D24*
X399200Y527600D03*
D16*
X399200Y511200D03*
D39*
X400000Y562000D03*
D10*
X400000Y531600D03*
D14*
X400000Y524400D03*
D11*
X400000Y514400D03*
X400000Y506400D03*
D39*
X400800Y562000D03*
D28*
X400800Y532000D03*
D11*
X400800Y523200D03*
X400800Y515200D03*
X400800Y505600D03*
D39*
X401600Y562000D03*
D10*
X401600Y522800D03*
X401600Y515600D03*
X401600Y505200D03*
D39*
X402400Y562000D03*
D11*
X402400Y522400D03*
X402400Y516000D03*
X402400Y504800D03*
D39*
X403200Y562000D03*
D11*
X403200Y522400D03*
D10*
X403200Y516400D03*
D11*
X403200Y504800D03*
D39*
X404000Y562000D03*
D10*
X404000Y522000D03*
X404000Y516400D03*
X404000Y504400D03*
D39*
X404800Y562000D03*
D10*
X404800Y522000D03*
X404800Y516400D03*
X404800Y504400D03*
D39*
X405600Y562000D03*
D10*
X405600Y522000D03*
X405600Y516400D03*
X405600Y504400D03*
D39*
X406400Y562000D03*
D10*
X406400Y522000D03*
X406400Y516400D03*
X406400Y504400D03*
D39*
X407200Y562000D03*
D10*
X407200Y522000D03*
X407200Y516400D03*
X407200Y504400D03*
D39*
X408000Y562000D03*
D10*
X408000Y522000D03*
X408000Y516400D03*
X408000Y504400D03*
D39*
X408800Y562000D03*
D11*
X408800Y522400D03*
D10*
X408800Y516400D03*
X408800Y504400D03*
D39*
X409600Y562000D03*
D11*
X409600Y522400D03*
X409600Y516000D03*
X409600Y504800D03*
D39*
X410400Y562000D03*
D10*
X410400Y522800D03*
D11*
X410400Y516000D03*
D10*
X410400Y505200D03*
D39*
X411200Y562000D03*
D11*
X411200Y523200D03*
X411200Y515200D03*
X411200Y505600D03*
D39*
X412000Y562000D03*
D10*
X412000Y531600D03*
D11*
X412000Y524000D03*
X412000Y514400D03*
X412000Y506400D03*
D39*
X412800Y562000D03*
D13*
X412800Y528000D03*
D14*
X412800Y513200D03*
D27*
X412800Y508000D03*
D39*
X413600Y562000D03*
D12*
X413600Y528000D03*
D25*
X413600Y510800D03*
D39*
X414400Y562000D03*
X415200Y562000D03*
X416000Y562000D03*
X416800Y562000D03*
X417600Y562000D03*
X418400Y562000D03*
X419200Y562000D03*
M02*
