G04 EAGLE Gerber X2 export*
%TF.Part,Single*%
%TF.FileFunction,Soldermask,Bot,1*%
%TF.FilePolarity,Negative*%
%TF.GenerationSoftware,Autodesk,EAGLE,8.7.0*%
%TF.CreationDate,2019-01-30T20:44:03Z*%
G75*
%MOMM*%
%FSLAX34Y34*%
%LPD*%
%AMOC8*
5,1,8,0,0,1.08239X$1,22.5*%
G01*
%ADD10C,4.203200*%
%ADD11P,1.852186X8X292.500000*%
%ADD12C,1.993900*%
%ADD13C,1.524000*%
%ADD14C,2.743200*%
%ADD15C,2.184400*%
%ADD16P,2.034460X8X112.500000*%
%ADD17R,2.303200X2.303200*%
%ADD18C,3.203200*%
%ADD19P,1.649562X8X112.500000*%
%ADD20P,1.649562X8X292.500000*%
%ADD21P,1.649562X8X22.500000*%
%ADD22C,3.213100*%
%ADD23C,3.530600*%
%ADD24C,1.631200*%
%ADD25C,1.625600*%
%ADD26R,2.703200X2.703200*%
%ADD27C,0.959600*%
%ADD28C,1.553200*%
%ADD29C,1.159600*%


D10*
X50000Y650000D03*
X950000Y40000D03*
X50000Y40000D03*
X970000Y450000D03*
D11*
X378456Y646532D03*
D12*
X929267Y125646D02*
X947174Y125646D01*
X947174Y176446D02*
X929267Y176446D01*
D11*
X429590Y646734D03*
X404026Y646684D03*
D12*
X928977Y336488D02*
X946884Y336488D01*
X946884Y387288D02*
X928977Y387288D01*
D13*
X617100Y478396D02*
X617100Y491604D01*
X617100Y390004D02*
X617100Y376796D01*
D12*
X61532Y159118D02*
X43625Y159118D01*
X43625Y108318D02*
X61532Y108318D01*
D14*
X601860Y64200D02*
X601860Y38800D01*
X810140Y38800D02*
X810140Y64200D01*
X759340Y64200D02*
X759340Y38800D01*
X652660Y38800D02*
X652660Y64200D01*
X140560Y628800D02*
X140560Y654200D01*
X348840Y654200D02*
X348840Y628800D01*
X298040Y628800D02*
X298040Y654200D01*
X191360Y654200D02*
X191360Y628800D01*
D11*
X455178Y646968D03*
D15*
X658144Y429400D02*
X677956Y429400D01*
X678464Y369710D02*
X698276Y369710D01*
X698276Y489090D02*
X678464Y489090D01*
X800384Y489090D02*
X820196Y489090D01*
X820196Y369710D02*
X800384Y369710D01*
D12*
X929621Y231086D02*
X947528Y231086D01*
X947528Y281886D02*
X929621Y281886D01*
D16*
X382900Y71400D03*
X382900Y96800D03*
D17*
X686500Y240800D03*
X728500Y240800D03*
X770500Y240800D03*
X770500Y185800D03*
X728500Y185800D03*
X686500Y185800D03*
D18*
X639500Y190400D03*
X817500Y190400D03*
D13*
X158780Y475056D02*
X145572Y475056D01*
X145572Y449656D02*
X158780Y449656D01*
X234980Y449656D02*
X248188Y449656D01*
X248188Y475056D02*
X234980Y475056D01*
X158780Y424256D02*
X145572Y424256D01*
X234980Y424256D02*
X248188Y424256D01*
X158976Y370286D02*
X145768Y370286D01*
X145768Y344886D02*
X158976Y344886D01*
X235176Y344886D02*
X248384Y344886D01*
X248384Y370286D02*
X235176Y370286D01*
X158976Y319486D02*
X145768Y319486D01*
X235176Y319486D02*
X248384Y319486D01*
X158722Y264274D02*
X145514Y264274D01*
X145514Y238874D02*
X158722Y238874D01*
X234922Y238874D02*
X248130Y238874D01*
X248130Y264274D02*
X234922Y264274D01*
X158722Y213474D02*
X145514Y213474D01*
X234922Y213474D02*
X248130Y213474D01*
X158628Y157754D02*
X145420Y157754D01*
X145420Y132354D02*
X158628Y132354D01*
X234828Y132354D02*
X248036Y132354D01*
X248036Y157754D02*
X234828Y157754D01*
X158628Y106954D02*
X145420Y106954D01*
X234828Y106954D02*
X248036Y106954D01*
D19*
X120696Y408178D03*
X120696Y484378D03*
D20*
X690048Y606200D03*
X690048Y530000D03*
D21*
X774166Y318126D03*
X850366Y318126D03*
X533800Y150000D03*
X610000Y150000D03*
D20*
X536000Y656200D03*
X536000Y580000D03*
D19*
X544950Y416450D03*
X544950Y492650D03*
D21*
X263800Y32000D03*
X340000Y32000D03*
D20*
X287576Y484632D03*
X287576Y408432D03*
D19*
X120188Y302514D03*
X120188Y378714D03*
D20*
X288338Y383540D03*
X288338Y307340D03*
D19*
X120696Y199390D03*
X120696Y275590D03*
D20*
X289608Y276098D03*
X289608Y199898D03*
D19*
X122728Y94996D03*
X122728Y171196D03*
D20*
X289284Y170846D03*
X289284Y94646D03*
D22*
X849451Y646132D02*
X879550Y646132D01*
X879550Y606000D02*
X849451Y606000D01*
X849451Y565868D02*
X879550Y565868D01*
X771150Y646132D02*
X741051Y646132D01*
X741051Y606000D02*
X771150Y606000D01*
X771150Y565868D02*
X741051Y565868D01*
D12*
X61278Y263258D02*
X43371Y263258D01*
X43371Y212458D02*
X61278Y212458D01*
X61058Y471554D02*
X43151Y471554D01*
X43151Y420754D02*
X61058Y420754D01*
X61058Y367444D02*
X43151Y367444D01*
X43151Y316644D02*
X61058Y316644D01*
D21*
X615600Y621700D03*
X641000Y621700D03*
X641000Y647100D03*
D23*
X953630Y511446D03*
X1010526Y511700D03*
X953630Y643018D03*
X1010526Y642764D03*
D24*
X983602Y565294D03*
X983602Y586630D03*
X957440Y565294D03*
X957440Y586376D03*
X983602Y613808D03*
X983602Y540910D03*
X957440Y613808D03*
X957440Y540910D03*
D25*
X197300Y37112D02*
X197300Y22888D01*
X222700Y22888D02*
X222700Y37112D01*
D12*
X60912Y575632D02*
X43005Y575632D01*
X43005Y524832D02*
X60912Y524832D01*
D26*
X496360Y548120D03*
X323640Y548120D03*
X323640Y151880D03*
X496360Y151880D03*
D18*
X486200Y494780D03*
X333800Y197600D03*
D20*
X720000Y297808D03*
X739050Y310508D03*
X720000Y323208D03*
D13*
X646070Y128082D02*
X646070Y114874D01*
X671470Y114874D02*
X671470Y128082D01*
X696870Y128082D02*
X696870Y114874D01*
X722270Y114874D02*
X722270Y128082D01*
X747670Y128082D02*
X747670Y114874D01*
X773070Y114874D02*
X773070Y128082D01*
X798470Y128082D02*
X798470Y114874D01*
X823870Y114874D02*
X823870Y128082D01*
D27*
X196447Y530000D03*
D28*
X860000Y340000D03*
X920000Y480000D03*
X928719Y520534D03*
X370000Y550000D03*
X550000Y180814D03*
X390000Y480000D03*
D27*
X870000Y260000D03*
X540000Y110000D03*
D29*
X440000Y140000D03*
X350000Y400000D03*
D27*
X710000Y80000D03*
D29*
X394970Y138938D03*
X511255Y31255D03*
D27*
X659811Y20189D03*
D29*
X460000Y60000D03*
D27*
X510000Y90000D03*
X490000Y70000D03*
D29*
X350000Y50000D03*
D28*
X880000Y500000D03*
X880000Y450000D03*
X870000Y100000D03*
X570000Y570000D03*
X500000Y220000D03*
X860000Y220000D03*
X850000Y100000D03*
X670814Y510000D03*
X610000Y550000D03*
X570000Y590000D03*
D27*
X590000Y490000D03*
D28*
X850000Y380000D03*
D27*
X490000Y450000D03*
X480000Y450000D03*
X470000Y450000D03*
X470000Y440000D03*
X480000Y440000D03*
X490000Y440000D03*
X490000Y430000D03*
X480000Y430000D03*
X470000Y430000D03*
X460000Y430000D03*
X460000Y420000D03*
X470000Y420000D03*
X480000Y420000D03*
X490000Y420000D03*
X490000Y410000D03*
X480000Y410000D03*
X460000Y410000D03*
X470000Y410000D03*
X460000Y400000D03*
X470000Y400000D03*
X480000Y400000D03*
X490000Y400000D03*
X490000Y390000D03*
X470000Y390000D03*
X460000Y390000D03*
X480000Y390000D03*
X480000Y380000D03*
X470000Y380000D03*
X460000Y380000D03*
X490000Y380000D03*
X490000Y370000D03*
X480000Y370000D03*
X470000Y370000D03*
X460000Y370000D03*
X490000Y360000D03*
X480000Y360000D03*
X470000Y360000D03*
X460000Y360000D03*
X460000Y350000D03*
X470000Y350000D03*
X480000Y350000D03*
X490000Y350000D03*
X490000Y340000D03*
X480000Y340000D03*
X470000Y340000D03*
X460000Y340000D03*
X460000Y330000D03*
X470000Y330000D03*
X480000Y330000D03*
X490000Y330000D03*
X490000Y320000D03*
X480000Y320000D03*
X470000Y320000D03*
X460000Y320000D03*
X460000Y310000D03*
X470000Y310000D03*
X480000Y310000D03*
X490000Y310000D03*
X490000Y300000D03*
X480000Y300000D03*
X470000Y300000D03*
X460000Y300000D03*
X460000Y280000D03*
X460000Y290000D03*
X470000Y290000D03*
X470000Y280000D03*
X480000Y290000D03*
X480000Y280000D03*
X490000Y290000D03*
X490000Y280000D03*
X470000Y460000D03*
X480000Y460000D03*
X490000Y460000D03*
X460000Y270000D03*
X470000Y270000D03*
X480000Y270000D03*
X490000Y270000D03*
X460000Y460000D03*
X460000Y450000D03*
X460000Y440000D03*
M02*
